<svg width="64" height="64" viewBox="0 0 64 64" fill="none" xmlns="http://www.w3.org/2000/svg">
<path fill-rule="evenodd" clip-rule="evenodd" d="M31.8439 57.4439C17.7951 57.4439 6.2439 45.8927 6.2439 31.8439C6.2439 17.7951 17.639 6.4 31.5317 6.2439C31.5317 6.2439 31.5317 6.2439 31.6878 6.2439H31.8439C45.8927 6.2439 57.4439 17.7951 57.4439 31.8439C57.4439 45.8927 45.8927 57.4439 31.8439 57.4439ZM54.322 9.36585C48.2341 3.27805 40.2732 0 31.8439 0C23.4146 0 15.2976 3.27805 9.36585 9.36585C3.27805 15.4537 0 23.4146 0 31.8439C0 40.4293 3.27805 48.3902 9.36585 54.322C15.4537 60.4098 23.4146 63.6878 31.8439 63.6878C40.4293 63.6878 48.3902 60.4098 54.322 54.322C60.4098 48.2341 63.6878 40.2732 63.6878 31.8439C63.6878 23.4146 60.4098 15.2976 54.322 9.36585Z" fill="#293333"/>
<path fill-rule="evenodd" clip-rule="evenodd" d="M39.4926 26.8487L33.2487 33.0926C32.9365 33.4048 32.4682 33.717 31.8438 33.717C31.3755 33.717 30.9072 33.5609 30.4389 33.0926L19.5121 22.1658C18.7316 21.3853 18.7316 20.2926 19.5121 19.5121C20.2926 18.7316 21.3853 18.7316 22.1658 19.5121L31.8438 29.1901L36.8389 24.195C37.6194 23.4145 38.7121 23.4145 39.4926 24.195C40.2731 24.9755 40.2731 26.2243 39.4926 26.8487ZM51.356 33.4048C50.2633 33.4048 49.4828 32.6243 49.4828 31.5316C49.4828 30.4389 50.2633 29.6584 51.356 29.6584H53.6975C52.6048 19.1999 44.1755 10.9267 33.5609 10.1462V12.1755C33.5609 13.2682 32.7804 14.0487 31.6877 14.0487C30.595 14.0487 29.8145 13.2682 29.8145 12.1755V10.1462C19.356 11.2389 11.0828 19.5121 10.1462 29.9706H12.1755C13.2682 29.9706 14.0487 30.7511 14.0487 31.8438C14.0487 32.9365 13.2682 33.717 12.1755 33.717H10.1462C11.0828 44.3316 19.5121 52.7609 29.9706 53.6975V51.356C29.9706 50.2633 30.7511 49.4828 31.8438 49.4828C32.9365 49.4828 33.717 50.2633 33.717 51.356V53.6975C44.3316 52.7609 52.917 44.1755 53.5414 33.5609H51.356V33.4048Z" fill="#FF0000"/>
</svg>
