<svg width="51" height="64" viewBox="0 0 51 64" fill="none" xmlns="http://www.w3.org/2000/svg">
<g clip-path="url(#clip0)">
<path fill-rule="evenodd" clip-rule="evenodd" d="M38.2694 19.9837C38.2694 18.8082 38.0082 17.6327 37.6163 16.4571C37.2245 15.2816 36.5714 14.2367 35.9184 13.3224C35.1347 12.4082 34.2204 11.6245 33.1755 11.102C32.1306 10.5796 30.8245 10.1878 29.3878 10.1878H23.249V29.649H29.3878C30.6939 29.649 31.8694 29.3878 32.9143 28.8653C33.9592 28.3429 35.0041 27.6898 35.7878 26.9061C36.5714 25.9918 37.2245 24.9469 37.6163 23.7714C38.0082 22.7265 38.2694 21.4204 38.2694 19.9837ZM2.0898 46.3673H10.3184V40.098H2.0898C0.914286 40.098 0 39.1837 0 38.0082V32C0 30.8245 0.914286 29.9102 2.0898 29.9102H10.3184V1.56735C10.3184 1.0449 10.449 0.783673 10.7102 0.391837C10.8408 0.130612 11.2327 0 11.7551 0H19.0694H19.3306H30.6939C32.5224 0 34.2204 0.261224 35.9184 0.653061C37.6163 1.17551 39.1837 1.82857 40.751 2.61224C42.3184 3.52653 43.6245 4.57143 44.9306 5.74694C46.1061 6.92245 47.2816 8.35918 48.1959 9.79592C49.1102 11.3633 49.7633 12.9306 50.2857 14.6286C50.8082 16.3265 51.0694 18.1551 51.0694 20.1143C51.0694 22.8571 50.5469 25.4694 49.502 27.951C48.4571 30.4327 47.0204 32.5224 45.1918 34.351C43.3633 36.1796 41.2735 37.6163 38.7918 38.6612C36.3102 39.7061 33.698 40.2286 30.9551 40.2286H23.6408V46.1061H40.4898C41.6653 46.1061 42.5796 47.0204 42.5796 48.1959V54.2041C42.5796 55.3796 41.6653 56.2939 40.4898 56.2939H23.249V61.7796C23.249 62.6939 22.7265 63.2163 21.6816 63.2163H11.7551C11.3633 63.2163 10.9714 63.0857 10.7102 62.8245C10.449 62.5633 10.3184 62.1714 10.3184 61.7796V56.2939H2.0898C0.914286 56.2939 0 55.3796 0 54.2041V48.1959C0 47.2816 0.914286 46.3673 2.0898 46.3673Z" fill="#293333"/>
</g>
<defs>
<clipPath id="clip0">
<rect width="50.9388" height="64" fill="white"/>
</clipPath>
</defs>
</svg>
