<svg width="42" height="64" viewBox="0 0 42 64" fill="none" xmlns="http://www.w3.org/2000/svg">
<path fill-rule="evenodd" clip-rule="evenodd" d="M10.1001 14.1H31.8001C31.8001 11.8 31.8001 4.5 31.8001 1.8C31.9001 0.8 31.0001 0 30.0001 0H12.0001C11.0001 0 10.1001 0.8 10.1001 1.9V14.1Z" fill="#FF0000"/>
<path d="M30.0999 25.8999H11.8999V31.1999H30.0999V25.8999Z" fill="#FF0000"/>
<path fill-rule="evenodd" clip-rule="evenodd" d="M41.9 8.0001C41.9 7.0001 41.1 6.1001 40 6.1001H35.6V14.1001H36C37 14.1001 37.9 14.9001 37.9 16.0001C37.9 17.0001 37.1 17.9001 36 17.9001C34.3 17.9001 7.5 17.9001 6 17.9001C5 17.9001 4.1 17.1001 4.1 16.0001C4.1 15.0001 4.9 14.1001 6 14.1001H6.4V6.1001H1.9C0.8 6.1001 0 7.0001 0 8.0001V62.1001C0 63.1001 0.8 64.0001 1.9 64.0001H40C41 64.0001 41.9 63.2001 41.9 62.1001C41.9 60.8001 41.9 12.7001 41.9 8.0001ZM12 56.9001H10C9 56.9001 8.1 56.1001 8.1 55.0001C8.1 54.0001 8.9 53.1001 10 53.1001H12C13 53.1001 13.9 53.9001 13.9 55.0001C13.9 56.0001 13 56.9001 12 56.9001ZM12 49.9001H10C9 49.9001 8.1 49.1001 8.1 48.0001C8.1 47.0001 8.9 46.1001 10 46.1001H12C13 46.1001 13.9 46.9001 13.9 48.0001C13.9 49.0001 13 49.9001 12 49.9001ZM12 42.9001H10C9 42.9001 8.1 42.1001 8.1 41.0001C8.1 40.0001 8.9 39.1001 10 39.1001H12C13 39.1001 13.9 39.9001 13.9 41.0001C13.9 42.0001 13 42.9001 12 42.9001ZM22 56.9001H20C19 56.9001 18.1 56.1001 18.1 55.0001C18.1 54.0001 18.9 53.1001 20 53.1001H22C23 53.1001 23.9 53.9001 23.9 55.0001C23.9 56.0001 23 56.9001 22 56.9001ZM22 49.9001H20C19 49.9001 18.1 49.1001 18.1 48.0001C18.1 47.0001 18.9 46.1001 20 46.1001H22C23 46.1001 23.9 46.9001 23.9 48.0001C23.9 49.0001 23 49.9001 22 49.9001ZM22 42.9001H20C19 42.9001 18.1 42.1001 18.1 41.0001C18.1 40.0001 18.9 39.1001 20 39.1001H22C23 39.1001 23.9 39.9001 23.9 41.0001C23.9 42.0001 23 42.9001 22 42.9001ZM32 56.9001H30C29 56.9001 28.1 56.1001 28.1 55.0001C28.1 54.0001 28.9 53.1001 30 53.1001H32C33 53.1001 33.9 53.9001 33.9 55.0001C33.9 56.0001 33 56.9001 32 56.9001ZM32 49.9001H30C29 49.9001 28.1 49.1001 28.1 48.0001C28.1 47.0001 28.9 46.1001 30 46.1001H32C33 46.1001 33.9 46.9001 33.9 48.0001C33.9 49.0001 33 49.9001 32 49.9001ZM32 42.9001H30C29 42.9001 28.1 42.1001 28.1 41.0001C28.1 40.0001 28.9 39.1001 30 39.1001H32C33 39.1001 33.9 39.9001 33.9 41.0001C33.9 42.0001 33 42.9001 32 42.9001ZM33.9 33.0001C33.9 34.0001 33.1 34.9001 32 34.9001H10C9 34.9001 8.1 34.1001 8.1 33.0001V24.0001C8.1 23.0001 8.9 22.1001 10 22.1001H32C33 22.1001 33.9 22.9001 33.9 24.0001V33.0001Z" fill="#293333"/>
</svg>
