<svg width="64" height="51" viewBox="0 0 64 51" fill="none" xmlns="http://www.w3.org/2000/svg">
<g clip-path="url(#clip0)">
<path fill-rule="evenodd" clip-rule="evenodd" d="M19.3306 14.2367C18.9388 8.62041 16.0653 3.39592 11.6245 0L4.83268 9.01225C6.79187 10.449 7.96738 12.5388 8.09799 15.0204C8.2286 17.3714 7.44493 19.7224 5.74697 21.4204C1.69799 25.3388 -0.391806 30.9551 3.11844e-05 36.5714C0.391868 42.1878 3.26534 47.4122 7.70615 50.8082L14.498 41.7959C12.5388 40.3592 11.3633 38.2694 11.2327 35.7878C11.1021 33.4367 11.8857 31.0857 13.5837 29.3878C17.6327 25.3388 19.7225 19.8531 19.3306 14.2367Z" fill="#293333"/>
<path fill-rule="evenodd" clip-rule="evenodd" d="M22.596 36.5714C22.9878 42.1878 25.8613 47.4122 30.3021 50.8082L37.0939 41.7959C35.1348 40.3592 33.9592 38.2694 33.8286 35.7878C33.698 33.4367 34.4817 31.0857 36.1797 29.3878C40.2286 25.3388 42.1878 19.8531 41.796 14.2367C41.5348 8.62041 38.6613 3.39592 34.2205 0L27.4286 9.01225C29.3878 10.449 30.5633 12.5388 30.6939 15.0204C30.8246 17.3714 30.0409 19.7224 28.3429 21.4204C24.2939 25.3388 22.2041 30.9551 22.596 36.5714Z" fill="#FF0000"/>
<path fill-rule="evenodd" clip-rule="evenodd" d="M45.1917 36.5714C45.5836 42.1878 48.4571 47.4122 52.8979 50.8082L59.6897 41.7959C57.7305 40.3592 56.555 38.2694 56.4244 35.7878C56.2938 33.4367 57.0775 31.0857 58.7754 29.3878C62.8244 25.3388 64.7836 19.8531 64.3918 14.2367C64.1305 8.62041 61.2571 3.39592 56.6856 0L49.8938 9.01225C51.853 10.449 53.0285 12.5388 53.1591 15.0204C53.2897 17.3714 52.506 19.7224 50.8081 21.4204C46.8897 25.3388 44.7999 30.9551 45.1917 36.5714Z" fill="#293333"/>
</g>
<defs>
<clipPath id="clip0">
<rect width="64" height="50.9388" fill="white"/>
</clipPath>
</defs>
</svg>
