<svg width="33" height="40" viewBox="0 0 33 40" fill="none" xmlns="http://www.w3.org/2000/svg">
<g clip-path="url(#clip0)" filter="url(#filter0_b)">
<path d="M16.5 28.6001C23.0875 28.6001 28.4277 23.2275 28.4277 16.6001C28.4277 9.97268 23.0875 4.6001 16.5 4.6001C9.91248 4.6001 4.57227 9.97268 4.57227 16.6001C4.57227 23.2275 9.91248 28.6001 16.5 28.6001Z" fill="white"/>
<path fill-rule="evenodd" clip-rule="evenodd" d="M0 15.56C0 19.12 0.119277 20.16 1.35181 23.24C1.98795 24.8 2.74337 25.76 3.69759 27.08C4.57229 28.28 10.6952 34.24 11.5699 35.12C12.4048 35.96 13.2 36.76 14.0349 37.6L16.5 40.04C16.8181 39.8 20.9928 35.56 21.3904 35.16C23.0205 33.52 24.6108 31.92 26.241 30.28C27.3542 29.16 27.8711 28.76 28.8651 27.56C28.9843 27.44 29.0639 27.36 29.1831 27.24C29.3819 27 29.541 26.8 29.7398 26.52C31.4892 24.2 33 20.52 33 17.52C33 15.16 32.9602 13.16 32.006 10.84C31.8867 10.56 31.847 10.36 31.7277 10.12C31.6084 9.84 31.5289 9.68 31.4096 9.4C30.5349 7.6 29.8193 6.68 28.6265 5.32L27.6723 4.36C26.6386 3.36 26.0819 3 24.8892 2.24C24.7699 2.16 24.7301 2.16 24.5711 2.08C24.3723 2 24.3723 1.96 24.253 1.88C22.3843 0.84 19.0843 0 17.0964 0C13.7566 0 12.4048 0.28 9.58193 1.52C9.30362 1.64 9.14458 1.68 8.94578 1.8C7.91205 2.4 6.95783 2.92 6.00361 3.76C5.84458 3.88 5.88434 3.84 5.7253 3.96C5.60602 4.04 5.56627 4.12 5.44699 4.24C4.96988 4.76 5.20843 4.32 4.49277 5.2L3.57831 6.24C2.10723 8.12 1.27229 9.88 0.596386 12.16C0.318072 12.96 0 14.64 0 15.56ZM21.4699 24.32C20.9928 24.28 20.6349 23.76 20.3169 23.44C19.2036 22.32 17.4145 20.52 17.0566 20.12C16.7783 19.84 15.8639 18.84 15.6253 18.72C15.347 18.92 15.0289 19.32 14.7506 19.6C14.0747 20.28 12.3651 21.8 12.2855 22.52C12.0867 24.32 14.8301 24.4 14.8301 22.64C14.8301 22 14.4723 21.72 14.1145 21.52L15.6651 19.92C16.2217 20.28 16.7783 21.04 16.9771 22.04C17.5337 24.96 14.2337 27.4 11.5699 25.52C10.2976 24.64 9.46265 22.4 10.7747 20.68C11.4506 19.76 13.8361 17.6 14.1542 17.16L12.4843 15.44C11.9277 14.84 11.3313 14.36 10.8145 13.68C9.50241 12 10.2976 9.76 11.5699 8.84C14.1542 6.92 17.5735 9.24 17.0566 12.24C16.8976 13.24 16.3012 14.04 15.7446 14.4L14.1542 12.8C15.1084 12.32 15.1482 11.04 14.2337 10.52C13.2398 9.96 12.0867 10.92 12.4048 12C12.6036 12.6 15.347 15.24 15.9831 15.84C18.6867 18.6 21.4699 21.44 24.253 24.28L21.4699 24.32ZM16.2217 14.96L19.4422 11.64C20.9928 10.04 20.8735 9.84 22.0663 9.84L24.2928 9.88L17.7325 16.48L16.2217 14.96Z" fill="#575656"/>
</g>
<defs>
<filter id="filter0_b" x="-50" y="-50" width="133" height="140" filterUnits="userSpaceOnUse" color-interpolation-filters="sRGB">
<feFlood flood-opacity="0" result="BackgroundImageFix"/>
<feGaussianBlur in="BackgroundImage" stdDeviation="25"/>
<feComposite in2="SourceAlpha" operator="in" result="effect1_backgroundBlur"/>
<feBlend mode="normal" in="SourceGraphic" in2="effect1_backgroundBlur" result="shape"/>
</filter>
<clipPath id="clip0">
<rect width="33" height="40" fill="white"/>
</clipPath>
</defs>
</svg>
