<svg width="142" height="151" viewBox="0 0 142 151" fill="none" xmlns="http://www.w3.org/2000/svg">
<g clip-path="url(#clip0)" filter="url(#filter0_d)">
<path d="M71.0001 81.4647C79.3841 81.4647 86.1808 74.6147 86.1808 66.1647C86.1808 57.7148 79.3841 50.8647 71.0001 50.8647C62.616 50.8647 55.8193 57.7148 55.8193 66.1647C55.8193 74.6147 62.616 81.4647 71.0001 81.4647Z" fill="white"/>
<path fill-rule="evenodd" clip-rule="evenodd" d="M50 64.839C50 69.378 50.1518 70.704 51.7205 74.631C52.5301 76.62 53.4916 77.844 54.706 79.527C55.8193 81.057 63.612 88.656 64.7253 89.778C65.788 90.849 66.8 91.869 67.8627 92.94L71 96.051C71.4048 95.745 76.7181 90.339 77.2241 89.829C79.2988 87.738 81.3229 85.698 83.3976 83.607C84.8145 82.179 85.4723 81.669 86.7374 80.139C86.8892 79.986 86.9904 79.884 87.1422 79.731C87.3952 79.425 87.5976 79.17 87.8506 78.813C90.0771 75.855 92 71.163 92 67.338C92 64.329 91.9494 61.779 90.7349 58.821C90.5831 58.464 90.5325 58.209 90.3807 57.903C90.2289 57.546 90.1277 57.342 89.9759 56.985C88.8627 54.69 87.9518 53.517 86.4337 51.783L85.2193 50.559C83.9036 49.284 83.1952 48.825 81.6771 47.856C81.5253 47.754 81.4747 47.754 81.2723 47.652C81.0193 47.55 81.0193 47.499 80.8675 47.397C78.4892 46.071 74.2892 45 71.759 45C67.5084 45 65.788 45.357 62.1952 46.938C61.841 47.091 61.6386 47.142 61.3855 47.295C60.0699 48.06 58.8554 48.723 57.641 49.794C57.4386 49.947 57.4892 49.896 57.2867 50.049C57.1349 50.151 57.0843 50.253 56.9325 50.406C56.3253 51.069 56.6289 50.508 55.7181 51.63L54.5542 52.956C52.6819 55.353 51.6193 57.597 50.759 60.504C50.4048 61.524 50 63.666 50 64.839ZM77.3253 76.008C76.7181 75.957 76.2627 75.294 75.8578 74.886C74.441 73.458 72.1639 71.163 71.7084 70.653C71.3542 70.296 70.1904 69.021 69.8867 68.868C69.5325 69.123 69.1277 69.633 68.7735 69.99C67.9133 70.857 65.7374 72.795 65.6361 73.713C65.3831 76.008 68.8747 76.11 68.8747 73.866C68.8747 73.05 68.4193 72.693 67.9639 72.438L69.9374 70.398C70.6458 70.857 71.3542 71.826 71.6072 73.101C72.3157 76.824 68.1157 79.935 64.7253 77.538C63.106 76.416 62.0434 73.56 63.7133 71.367C64.5735 70.194 67.6096 67.44 68.0145 66.879L65.8892 64.686C65.1807 63.921 64.4217 63.309 63.7639 62.442C62.094 60.3 63.106 57.444 64.7253 56.271C68.0145 53.823 72.3663 56.781 71.7084 60.606C71.506 61.881 70.747 62.901 70.0386 63.36L68.0145 61.32C69.2289 60.708 69.2795 59.076 68.1157 58.413C66.8506 57.699 65.3831 58.923 65.788 60.3C66.041 61.065 69.5325 64.431 70.3422 65.196C73.7831 68.715 77.3253 72.336 80.8675 75.957L77.3253 76.008ZM70.6458 64.074L74.7446 59.841C76.7181 57.801 76.5663 57.546 78.0843 57.546L80.9181 57.597L72.5687 66.012L70.6458 64.074Z" fill="#575656"/>
</g>
<defs>
<filter id="filter0_d" x="0" y="0" width="142" height="151" filterUnits="userSpaceOnUse" color-interpolation-filters="sRGB">
<feFlood flood-opacity="0" result="BackgroundImageFix"/>
<feColorMatrix in="SourceAlpha" type="matrix" values="0 0 0 0 0 0 0 0 0 0 0 0 0 0 0 0 0 0 127 0"/>
<feOffset dy="5"/>
<feGaussianBlur stdDeviation="25"/>
<feColorMatrix type="matrix" values="0 0 0 0 0 0 0 0 0 0 0 0 0 0 0 0 0 0 0.25 0"/>
<feBlend mode="normal" in2="BackgroundImageFix" result="effect1_dropShadow"/>
<feBlend mode="normal" in="SourceGraphic" in2="effect1_dropShadow" result="shape"/>
</filter>
<clipPath id="clip0">
<rect width="42" height="51" fill="white" transform="translate(50 45)"/>
</clipPath>
</defs>
</svg>
