<svg width="47" height="57" viewBox="0 0 47 57" fill="none" xmlns="http://www.w3.org/2000/svg">
<path fill-rule="evenodd" clip-rule="evenodd" d="M0 22.173C0 27.246 0.16988 28.728 1.9253 33.117C2.83133 35.34 3.90723 36.708 5.26626 38.589C6.51205 40.299 15.2325 48.792 16.4783 50.046C17.6675 51.243 18.8 52.383 19.9892 53.58L23.5 57.057C23.953 56.715 29.8988 50.673 30.4651 50.103C32.7867 47.766 35.0518 45.486 37.3735 43.149C38.959 41.553 39.6952 40.983 41.1108 39.273C41.2807 39.102 41.394 38.988 41.5639 38.817C41.847 38.475 42.0735 38.19 42.3566 37.791C44.8482 34.485 47 29.241 47 24.966C47 21.603 46.9434 18.753 45.5843 15.447C45.4145 15.048 45.3578 14.763 45.188 14.421C45.0181 14.022 44.9048 13.794 44.7349 13.395C43.4892 10.83 42.4699 9.519 40.7711 7.581L39.412 6.213C37.9398 4.788 37.147 4.275 35.4482 3.192C35.2783 3.078 35.2217 3.078 34.9952 2.964C34.712 2.85 34.712 2.793 34.5422 2.679C31.8807 1.197 27.1807 0 24.3494 0C19.5928 0 17.6675 0.399 13.647 2.166C13.2506 2.337 13.0241 2.394 12.741 2.565C11.2687 3.42 9.90964 4.161 8.5506 5.358C8.3241 5.529 8.38072 5.472 8.15422 5.643C7.98434 5.757 7.92771 5.871 7.75783 6.042C7.07831 6.783 7.41807 6.156 6.3988 7.41L5.09639 8.892C3.0012 11.571 1.81205 14.079 0.849398 17.328C0.453012 18.468 0 20.862 0 22.173ZM30.5783 34.656C29.8988 34.599 29.3892 33.858 28.9361 33.402C27.3506 31.806 24.8024 29.241 24.2928 28.671C23.8964 28.272 22.594 26.847 22.2542 26.676C21.8578 26.961 21.4048 27.531 21.0084 27.93C20.0458 28.899 17.6108 31.065 17.4976 32.091C17.2145 34.656 21.1217 34.77 21.1217 32.262C21.1217 31.35 20.612 30.951 20.1024 30.666L22.3108 28.386C23.1036 28.899 23.8964 29.982 24.1795 31.407C24.9723 35.568 20.2723 39.045 16.4783 36.366C14.6663 35.112 13.4771 31.92 15.3458 29.469C16.3084 28.158 19.706 25.08 20.159 24.453L17.7807 22.002C16.988 21.147 16.1386 20.463 15.4024 19.494C13.5337 17.1 14.6663 13.908 16.4783 12.597C20.159 9.861 25.0289 13.167 24.2928 17.442C24.0663 18.867 23.2169 20.007 22.4241 20.52L20.159 18.24C21.5181 17.556 21.5747 15.732 20.2723 14.991C18.8566 14.193 17.2145 15.561 17.6675 17.1C17.9506 17.955 21.8578 21.717 22.7639 22.572C26.6145 26.505 30.5783 30.552 34.5422 34.599L30.5783 34.656ZM23.1036 21.318L27.6904 16.587C29.8988 14.307 29.7289 14.022 31.4277 14.022L34.5988 14.079L25.2554 23.484L23.1036 21.318Z" fill="#575656"/>
</svg>
