<svg width="24" height="24" viewBox="0 0 24 24" fill="none" xmlns="http://www.w3.org/2000/svg">
<path d="M4.2 24L19.8 24C22.1196 24 24 22.1196 24 19.8L24 4.2C24 1.8804 22.1196 0 19.8 0L4.2 0C1.8804 0 0 1.8804 0 4.2L0 19.8C0 22.1196 1.8804 24 4.2 24Z" fill="url(#paint0_radial)"/>
<path d="M16.5 21H7.5C6.30653 21 5.16193 20.5259 4.31802 19.682C3.47411 18.8381 3 17.6935 3 16.5V7.5C3 6.30653 3.47411 5.16193 4.31802 4.31802C5.16193 3.47411 6.30653 3 7.5 3H16.5C17.6935 3 18.8381 3.47411 19.682 4.31802C20.5259 5.16193 21 6.30653 21 7.5V16.5C21 17.6935 20.5259 18.8381 19.682 19.682C18.8381 20.5259 17.6935 21 16.5 21ZM7.5 4.8C6.78422 4.80099 6.09804 5.08577 5.59191 5.59191C5.08577 6.09804 4.80099 6.78422 4.8 7.5V16.5C4.80099 17.2158 5.08577 17.902 5.59191 18.4081C6.09804 18.9142 6.78422 19.199 7.5 19.2H16.5C17.2158 19.199 17.902 18.9142 18.4081 18.4081C18.9142 17.902 19.199 17.2158 19.2 16.5V7.5C19.199 6.78422 18.9142 6.09804 18.4081 5.59191C17.902 5.08577 17.2158 4.80099 16.5 4.8H7.5Z" fill="white"/>
<path d="M11.9999 17.1C10.9912 17.1 10.0052 16.8009 9.1665 16.2405C8.32781 15.6801 7.67413 14.8836 7.28812 13.9517C6.90211 13.0197 6.80112 11.9943 6.9979 11.005C7.19468 10.0157 7.68041 9.10697 8.39366 8.39372C9.10691 7.68047 10.0156 7.19475 11.0049 6.99796C11.9942 6.80118 13.0197 6.90217 13.9516 7.28818C14.8835 7.67419 15.68 8.32787 16.2404 9.16656C16.8008 10.0052 17.0999 10.9913 17.0999 12C17.0989 13.3523 16.5613 14.6489 15.6051 15.6051C14.6488 16.5613 13.3522 17.099 11.9999 17.1ZM11.9999 8.69997C11.3472 8.69997 10.7092 8.89351 10.1665 9.25612C9.62384 9.61872 9.20087 10.1341 8.9511 10.7371C8.70133 11.3401 8.63598 12.0036 8.76331 12.6438C8.89064 13.2839 9.20494 13.8719 9.66645 14.3334C10.128 14.7949 10.716 15.1092 11.3561 15.2366C11.9962 15.3639 12.6598 15.2985 13.2628 15.0488C13.8658 14.799 14.3811 14.376 14.7438 13.8333C15.1064 13.2907 15.2999 12.6526 15.2999 12C15.2989 11.1251 14.9509 10.2863 14.3323 9.66761C13.7136 9.04895 12.8748 8.70096 11.9999 8.69997Z" fill="white"/>
<path d="M17.1 8.09999C17.597 8.09999 18 7.69704 18 7.19999C18 6.70293 17.597 6.29999 17.1 6.29999C16.6029 6.29999 16.2 6.70293 16.2 7.19999C16.2 7.69704 16.6029 8.09999 17.1 8.09999Z" fill="white"/>
<defs>
<radialGradient id="paint0_radial" cx="0" cy="0" r="1" gradientUnits="userSpaceOnUse" gradientTransform="translate(-0.482811 23.5125) rotate(180) scale(55.4231)">
<stop stop-color="#F9ED32"/>
<stop offset="0.36" stop-color="#EE2A7B"/>
<stop offset="0.44" stop-color="#D22A8A"/>
<stop offset="0.6" stop-color="#8B2AB2"/>
<stop offset="0.83" stop-color="#1B2AF0"/>
<stop offset="0.88" stop-color="#002AFF"/>
</radialGradient>
</defs>
</svg>
