<svg width="183" height="40" viewBox="0 0 183 40" fill="none" xmlns="http://www.w3.org/2000/svg">
<g clip-path="url(#clip0)">
<path fill-rule="evenodd" clip-rule="evenodd" d="M23.0748 10.0408C23.3469 10.2585 23.5374 10.5578 23.5374 10.9116C23.5374 11.1565 23.4014 11.4014 23.2653 11.5918L23.2381 11.619L23.2109 11.6463C23.1837 11.6735 23.1565 11.7279 23.1293 11.7551C23.0476 11.8639 22.966 11.9728 22.8571 12.0816C22.7483 12.1905 22.6395 12.2993 22.5306 12.4082C22.3674 12.5442 22.1769 12.6531 21.9592 12.6531H21.8776C21.7959 12.6531 21.6871 12.6259 21.6054 12.5986C21.4694 12.5714 21.3605 12.4898 21.2517 12.4082C20.2721 11.6463 19.1837 11.0204 18.0136 10.585C16.8435 10.1497 15.6191 9.93197 14.3401 9.93197C13.3061 9.93197 12.2721 10.068 11.2653 10.3401C10.2857 10.6122 9.36055 10.9932 8.51701 11.5102C7.67347 12 6.88435 12.5986 6.20408 13.3061C5.52381 14.0136 4.92517 14.7755 4.43537 15.619C3.94558 16.4626 3.56463 17.3878 3.29252 18.3129C3.02041 19.2925 2.88435 20.2721 2.88435 21.2789C2.88435 22.2857 3.02041 23.2925 3.29252 24.2721C3.56463 25.2245 3.94558 26.1224 4.46259 26.966C4.95238 27.8095 5.55102 28.5714 6.2585 29.2517C6.93878 29.932 7.70068 30.5306 8.54422 31.0204C9.38776 31.5102 10.2857 31.8912 11.2381 32.1633C12.1905 32.4354 13.1973 32.5714 14.1769 32.5714C16.7347 32.5714 19.0204 31.6735 21.0612 30.2041L21.0884 30.1769L21.5782 29.9048C21.7415 29.8231 21.9048 29.7687 22.068 29.7687C22.2857 29.7687 22.5034 29.8776 22.6667 30.0136C22.8027 30.1497 22.9388 30.2857 23.0748 30.4218C23.2109 30.585 23.3197 30.7755 23.4014 30.966C23.483 31.1565 23.5646 31.3741 23.5646 31.5646C23.5646 31.7551 23.5102 31.9456 23.3742 32.1088C23.2925 32.2177 23.1837 32.3265 23.0748 32.4082C21.8503 33.3605 20.4898 34.1224 19.0204 34.6395C17.4966 35.1837 15.8639 35.4286 14.2585 35.4286C12.3265 35.4286 10.4762 35.0748 8.70748 34.3129C7.02041 33.5782 5.4966 32.5714 4.19048 31.2653C2.88435 29.9592 1.87755 28.4354 1.14286 26.7483C0.353741 25.034 0 23.1565 0 21.2517C0 19.9728 0.163265 18.6939 0.517007 17.4694C0.843538 16.2721 1.33333 15.1293 1.95918 14.068C2.58503 13.0068 3.31973 12.0544 4.19048 11.1837C5.06122 10.3129 6.01361 9.57823 7.07483 8.95238C8.13606 8.32653 9.27891 7.83674 10.4762 7.51021C11.7007 7.15646 12.9796 6.9932 14.2585 6.9932C15.8912 6.9932 17.4694 7.26531 18.9932 7.83674C20.4626 8.35374 21.8231 9.11565 23.0748 10.0408Z" fill="#293333"/>
<path fill-rule="evenodd" clip-rule="evenodd" d="M36.9795 10.4218V34.0408C36.9795 34.8844 36.4353 35.3741 35.619 35.3741H34.9659C34.1496 35.3741 33.6054 34.8571 33.6054 34.0408V10.4218H26.3945C25.5509 10.4218 25.0339 9.87755 25.0339 9.03401V8.38095C25.0339 7.56463 25.5782 7.02041 26.3945 7.02041H43.9455C44.272 7.02041 44.5986 7.10204 44.8707 7.31973C45.1972 7.56463 45.3333 7.97279 45.3333 8.35374V9.0068C45.3333 9.36054 45.2244 9.71429 44.9523 9.9864C44.6802 10.2585 44.3265 10.3946 43.9183 10.3946H36.9795V10.4218Z" fill="#293333"/>
<path fill-rule="evenodd" clip-rule="evenodd" d="M53.2245 29.9864V33.8231C53.2245 34.8571 52.517 35.5374 51.4558 35.5374H50.7755C49.7415 35.5374 49.0068 34.8571 49.0068 33.8231V8.62585C49.0068 7.80952 49.4966 7.12925 50.3402 6.96599L50.5306 6.91156H57.1701C58.83 6.91156 60.4898 7.21088 62.0136 7.89116C63.4014 8.51701 64.6803 9.36054 65.7143 10.4762C66.7483 11.5646 67.5375 12.7891 68.1089 14.1497C68.6531 15.5102 68.9524 16.9524 68.9524 18.4218C68.9524 19.8912 68.6803 21.3061 68.1361 22.6667C67.5919 24.0272 66.8028 25.2789 65.796 26.3673C64.762 27.483 63.483 28.3537 62.0953 29.0068C60.5715 29.7143 58.9116 30.0136 57.2245 30.0136H53.2245V29.9864ZM53.2245 25.8503H57.2245C58.313 25.8503 59.3742 25.6599 60.381 25.2245C61.279 24.8163 62.0953 24.2721 62.7756 23.5374C63.4286 22.8299 63.9456 22.0408 64.2994 21.1429C64.6531 20.2721 64.8436 19.3469 64.8436 18.4218C64.8436 17.4694 64.6531 16.5714 64.2994 15.6735C63.9456 14.7755 63.4286 13.9864 62.7756 13.2789C62.0953 12.5442 61.2517 12 60.3538 11.5918C59.3198 11.1293 58.2313 10.966 57.0885 10.966H53.2245V25.8503Z" fill="#293333"/>
<path fill-rule="evenodd" clip-rule="evenodd" d="M77.8778 26.6939L94.1499 7.42857C94.5308 6.93878 95.0751 6.66667 95.7281 6.66667C96.4356 6.66667 97.0614 6.9932 97.3608 7.61905C97.4696 7.86395 97.5512 8.13606 97.5785 8.40816V8.46259V33.3878C97.5785 34.5306 96.7349 35.3469 95.5649 35.3469H94.9118C93.7145 35.3469 92.871 34.5578 92.871 33.3878V15.9728C90.558 18.7211 88.2451 21.4422 85.905 24.1905C82.7757 27.8912 79.6465 31.5918 76.49 35.2925L76.4356 35.3469C76.0546 35.7551 75.5376 35.9728 74.9662 35.9728C74.2315 35.9728 73.5784 35.619 73.3063 34.9388C73.1975 34.6667 73.1431 34.3673 73.1431 34.068V9.30612C73.1431 8.13606 73.9866 7.34694 75.1839 7.34694H75.8097C77.007 7.34694 77.8506 8.13606 77.8506 9.30612V26.6939H77.8778Z" fill="#293333"/>
<path fill-rule="evenodd" clip-rule="evenodd" d="M153.714 13.7143C153.606 13.8776 153.497 14.0136 153.388 14.1497C153.252 14.3129 153.116 14.449 152.952 14.585C152.544 14.9388 152.027 15.1565 151.483 15.1565H151.429C151.184 15.1565 150.993 15.1293 150.748 15.0476C150.476 14.966 150.231 14.8299 149.987 14.6667L149.932 14.6395C149.17 14.068 148.354 13.5782 147.456 13.2517C146.585 12.9252 145.66 12.7619 144.735 12.7619C143.946 12.7619 143.157 12.8435 142.395 13.0612C141.66 13.2517 140.952 13.551 140.299 13.932C139.646 14.3129 139.075 14.7483 138.558 15.2925C138.041 15.8095 137.578 16.4082 137.197 17.034C136.816 17.6871 136.544 18.3673 136.327 19.0748C136.136 19.8095 136.027 20.5442 136.027 21.3061C136.027 22.068 136.136 22.8299 136.327 23.5646C136.517 24.2721 136.816 24.9524 137.197 25.6054C137.578 26.2313 138.041 26.8299 138.558 27.3469C139.075 27.8639 139.646 28.2993 140.299 28.6803C140.925 29.0612 141.633 29.3333 142.34 29.551C143.048 29.7415 143.81 29.8503 144.544 29.8503C146.476 29.8503 148.218 29.1701 149.769 28.0272L149.85 27.9728L150.395 27.6735L150.422 27.6463C150.776 27.483 151.129 27.3741 151.51 27.3741C152.055 27.3741 152.572 27.5918 153.007 27.9456C153.225 28.1088 153.415 28.3265 153.578 28.5442C153.769 28.7891 153.932 29.034 154.041 29.3061C154.204 29.6599 154.313 30.068 154.313 30.4762C154.313 30.9932 154.15 31.4558 153.85 31.8639C153.714 32.0544 153.551 32.2177 153.388 32.3537L153.333 32.381L153.279 32.4082C152.055 33.3605 150.721 34.0952 149.279 34.6122C147.755 35.1565 146.15 35.4014 144.544 35.4014C142.64 35.4014 140.789 35.0476 139.048 34.2857C137.361 33.5782 135.864 32.5714 134.558 31.2653C133.279 29.9864 132.272 28.4626 131.538 26.8027C130.776 25.034 130.422 23.1837 130.422 21.2789C130.422 20 130.585 18.7483 130.939 17.5238C131.265 16.3537 131.755 15.2109 132.354 14.1497C132.98 13.1156 133.714 12.1633 134.558 11.2925C135.401 10.4218 136.381 9.68708 137.415 9.06123C138.476 8.43538 139.592 7.97279 140.789 7.64626C142.014 7.29252 143.293 7.12925 144.544 7.12925C146.15 7.12925 147.755 7.40136 149.252 7.97279C150.694 8.51701 152.027 9.2517 153.252 10.1769C153.878 10.6395 154.259 11.3469 154.259 12.1361C154.259 12.7075 154.041 13.1973 153.714 13.6327V13.7143Z" fill="#293333"/>
<path fill-rule="evenodd" clip-rule="evenodd" d="M176.082 19.9728L164.163 34.5578C163.619 35.2653 162.776 35.6735 161.878 35.6735C160.816 35.6735 159.837 35.102 159.374 34.1224C159.211 33.7687 159.102 33.415 159.075 33.034V32.9252V10.6122C159.075 8.92517 160.327 7.67347 162.014 7.67347H162.558C164.245 7.67347 165.524 8.92517 165.524 10.6122V22.8571C166.83 21.2789 168.109 19.7007 169.415 18.0952C172.136 14.8027 174.83 11.483 177.551 8.16327L177.606 8.10885L177.66 8.05442C178.204 7.45578 178.966 7.10204 179.81 7.10204C180.925 7.10204 181.932 7.72789 182.367 8.78912C182.531 9.17007 182.612 9.57823 182.612 10.0136V32.1088C182.612 33.7959 181.333 35.0476 179.646 35.0476H179.102C177.415 35.0476 176.136 33.7959 176.136 32.1088V19.9728H176.082Z" fill="#293333"/>
<path fill-rule="evenodd" clip-rule="evenodd" d="M125.878 35.9728C124.789 35.8367 124 34.7483 123.293 34.0136C120.762 31.5646 116.844 27.5102 116 26.6667C115.347 26.0136 113.361 23.8639 112.762 23.5374C112.136 24.0272 111.401 24.8435 110.803 25.4694C109.252 26.9932 105.469 30.3129 105.279 31.9456C104.816 35.8912 110.993 36.1633 110.939 32.1905C110.912 30.8027 110.177 30.1497 109.306 29.7143L112.789 26.1497C114.014 26.9388 115.265 28.6531 115.674 30.8299C116.925 37.3333 109.524 42.7211 103.565 38.5578C100.762 36.5714 98.8844 31.5918 101.742 27.8367C103.293 25.7959 108.571 21.034 109.252 20.0544L105.497 16.2449C104.218 14.9388 102.939 13.8231 101.796 12.3537C98.9116 8.65306 100.626 3.67347 103.456 1.60544C109.197 -2.61224 116.844 2.5034 115.674 9.14286C115.293 11.3469 113.986 13.1701 112.762 13.932L109.225 10.3946C111.374 9.36055 111.456 6.44898 109.415 5.33333C107.184 4.13606 104.626 6.23129 105.361 8.62585C105.769 9.9864 111.973 15.8095 113.361 17.1701C119.646 23.3742 125.85 29.6871 132.082 35.9456L125.878 35.9728Z" fill="#FF0000"/>
<path fill-rule="evenodd" clip-rule="evenodd" d="M114.177 15.2653L121.388 7.91837C124.871 4.40817 124.599 3.89116 127.265 3.91837L132.218 3.97279L117.524 18.585L114.177 15.2653Z" fill="#FF0000"/>
</g>
<defs>
<clipPath id="clip0">
<rect width="182.585" height="40" fill="white"/>
</clipPath>
</defs>
</svg>
