<svg width="67" height="80" viewBox="0 0 67 80" fill="none" xmlns="http://www.w3.org/2000/svg">
<g clip-path="url(#clip0)">
<path d="M33.2 57.2002C46.4548 57.2002 57.2 46.455 57.2 33.2002C57.2 19.9454 46.4548 9.2002 33.2 9.2002C19.9451 9.2002 9.19995 19.9454 9.19995 33.2002C9.19995 46.455 19.9451 57.2002 33.2 57.2002Z" fill="white"/>
<path fill-rule="evenodd" clip-rule="evenodd" d="M0 31.12C0 38.24 0.24 40.32 2.72 46.48C4 49.6 5.52 51.52 7.44 54.16C9.2 56.56 21.52 68.48 23.28 70.24C24.96 71.92 26.56 73.52 28.24 75.2L33.2 80.08C33.84 79.6 42.24 71.12 43.04 70.32C46.32 67.04 49.52 63.84 52.8 60.56C55.04 58.32 56.08 57.52 58.08 55.12C58.32 54.88 58.48 54.72 58.72 54.48C59.12 54 59.44 53.6 59.84 53.04C63.36 48.4 66.4 41.04 66.4 35.04C66.4 30.32 66.32 26.32 64.4 21.68C64.16 21.12 64.08 20.72 63.84 20.24C63.6 19.68 63.44 19.36 63.2 18.8C61.44 15.2 60 13.36 57.6 10.64L55.68 8.72C53.6 6.72 52.48 6 50.08 4.48C49.84 4.32 49.76 4.32 49.44 4.16C49.04 4 49.04 3.92 48.8 3.76C45.04 1.68 38.4 0 34.4 0C27.68 0 24.96 0.56 19.28 3.04C18.72 3.28 18.4 3.36 18 3.6C15.92 4.8 14 5.84 12.08 7.52C11.76 7.76 11.84 7.68 11.52 7.92C11.28 8.08 11.2 8.24 10.96 8.48C10 9.52 10.48 8.64 9.04 10.4L7.2 12.48C4.24 16.24 2.56 19.76 1.2 24.32C0.64 25.92 0 29.28 0 31.12ZM43.2 48.64C42.24 48.56 41.52 47.52 40.88 46.88C38.64 44.64 35.04 41.04 34.32 40.24C33.76 39.68 31.92 37.68 31.44 37.44C30.88 37.84 30.24 38.64 29.68 39.2C28.32 40.56 24.88 43.6 24.72 45.04C24.32 48.64 29.84 48.8 29.84 45.28C29.84 44 29.12 43.44 28.4 43.04L31.52 39.84C32.64 40.56 33.76 42.08 34.16 44.08C35.28 49.92 28.64 54.8 23.28 51.04C20.72 49.28 19.04 44.8 21.68 41.36C23.04 39.52 27.84 35.2 28.48 34.32L25.12 30.88C24 29.68 22.8 28.72 21.76 27.36C19.12 24 20.72 19.52 23.28 17.68C28.48 13.84 35.36 18.48 34.32 24.48C34 26.48 32.8 28.08 31.68 28.8L28.48 25.6C30.4 24.64 30.48 22.08 28.64 21.04C26.64 19.92 24.32 21.84 24.96 24C25.36 25.2 30.88 30.48 32.16 31.68C37.6 37.2 43.2 42.88 48.8 48.56L43.2 48.64ZM32.64 29.92L39.12 23.28C42.24 20.08 42 19.68 44.4 19.68L48.88 19.76L35.68 32.96L32.64 29.92Z" fill="#575656"/>
</g>
<defs>
<clipPath id="clip0">
<rect width="66.4" height="80" fill="white"/>
</clipPath>
</defs>
</svg>
