<svg width="24" height="24" viewBox="0 0 24 24" fill="none" xmlns="http://www.w3.org/2000/svg">
<path d="M19.8 0H4.2C1.8804 0 0 1.8804 0 4.2V19.8C0 22.1196 1.8804 24 4.2 24H19.8C22.1196 24 24 22.1196 24 19.8V4.2C24 1.8804 22.1196 0 19.8 0Z" fill="#4489C8"/>
<path d="M3.60746 7.41376H6.48745C6.54766 7.41366 6.60647 7.43191 6.65605 7.46608C6.70563 7.50024 6.74362 7.54871 6.76496 7.60501C7.08371 8.42626 8.40745 11.64 9.6187 11.9025C10.5187 11.9025 10.2 7.62751 9.0562 7.62751C8.7562 7.62751 9.5887 7.09501 9.64495 7.07251C10.7079 6.78117 11.8296 6.78117 12.8925 7.07251C13.4662 7.31251 13.5637 7.98376 13.5787 8.55376C13.5937 9.12376 12.9412 11.5538 13.8 11.8163C14.925 12.1613 16.3725 8.63251 16.71 7.76626C16.7319 7.71066 16.7701 7.66299 16.8197 7.62953C16.8692 7.59607 16.9277 7.57837 16.9875 7.57876H20.1937C20.2433 7.5786 20.2921 7.59072 20.3358 7.61403C20.3795 7.63734 20.4168 7.67112 20.4443 7.71235C20.4717 7.75357 20.4886 7.80096 20.4933 7.85029C20.498 7.89961 20.4904 7.94933 20.4712 7.99501C19.8108 9.50166 19.019 10.9472 18.105 12.315C18.0272 12.4279 17.9908 12.5641 18.0017 12.7007C18.0126 12.8373 18.0703 12.9659 18.165 13.065C19.125 14.0925 21.75 17.0025 20.25 17.0025H17.0137C16.9301 17.0027 16.8473 16.9851 16.771 16.9508C16.6947 16.9166 16.6266 16.8664 16.5712 16.8038C16.0687 16.2488 14.6062 14.7038 13.9462 14.8275C13.3987 14.9288 13.3462 15.8588 13.3725 16.4663C13.3807 16.623 13.3273 16.7767 13.2235 16.8945C13.1198 17.0123 12.974 17.0847 12.8175 17.0963C12.2437 17.13 11.46 17.145 11.3887 17.1413C9.10121 16.995 7.74745 15.4688 6.4537 13.7663C5.09851 11.9613 4.04135 9.9508 3.32245 7.81126C3.30776 7.76599 3.30391 7.71789 3.31122 7.67086C3.31852 7.62383 3.33678 7.57917 3.36451 7.54049C3.39224 7.50181 3.42868 7.47019 3.47088 7.44817C3.51308 7.42616 3.55986 7.41437 3.60746 7.41376Z" fill="white"/>
</svg>
