<svg width="100" height="64" viewBox="0 0 100 64" fill="none" xmlns="http://www.w3.org/2000/svg">
<path d="M91.0156 63.25H8.98438C4.03047 63.25 0 59.2195 0 54.2656V9.73438C0 4.78047 4.03047 0.75 8.98438 0.75H91.0156C95.9695 0.75 100 4.78047 100 9.73438V54.2656C100 59.2195 95.9695 63.25 91.0156 63.25ZM8.98438 7C7.47656 7 6.25 8.22656 6.25 9.73438V54.2656C6.25 55.7734 7.47656 57 8.98438 57H91.0156C92.5234 57 93.75 55.7734 93.75 54.2656V9.73438C93.75 8.22656 92.5234 7 91.0156 7H8.98438Z" fill="#58629D"/>
<path d="M20.3164 35.125C18.5906 35.125 17.1904 33.7258 17.1904 32C17.1904 30.2742 18.5885 28.875 20.3145 28.875H20.3164C22.0422 28.875 23.4414 30.2742 23.4414 32C23.4414 33.7258 22.0422 35.125 20.3164 35.125Z" fill="#DB5461"/>
<path d="M79.6914 35.125C77.9656 35.125 76.5654 33.7258 76.5654 32C76.5654 30.2742 77.9635 28.875 79.6895 28.875H79.6914C81.4172 28.875 82.8164 30.2742 82.8164 32C82.8164 33.7258 81.4172 35.125 79.6914 35.125Z" fill="#DB5461"/>
<path d="M50 49.1875C40.5229 49.1875 32.8125 41.4771 32.8125 32C32.8125 22.5229 40.5229 14.8125 50 14.8125C59.4771 14.8125 67.1875 22.5229 67.1875 32C67.1875 41.4771 59.4771 49.1875 50 49.1875ZM50 21.0625C43.9691 21.0625 39.0625 25.9691 39.0625 32C39.0625 38.0309 43.9691 42.9375 50 42.9375C56.0309 42.9375 60.9375 38.0309 60.9375 32C60.9375 25.9691 56.0309 21.0625 50 21.0625Z" fill="#58629D"/>
</svg>
