<svg width="200" height="71" viewBox="0 0 200 71" fill="none" xmlns="http://www.w3.org/2000/svg">
<g clip-path="url(#clip0)">
<path d="M103.181 21.9637H100.522V29.269H99.4296V21.9637H96.7705V21.1042H103.181V21.9637Z" fill="#BFC1CF"/>
<path d="M103.371 26.1654C103.371 25.2582 103.609 24.542 104.083 23.9691C104.558 23.3961 105.223 23.1096 106.03 23.1096C106.885 23.1096 107.502 23.3961 108.024 23.9691C108.499 24.542 108.737 25.306 108.737 26.1654V26.3087C108.737 27.2159 108.499 27.9321 108.024 28.505C107.55 29.078 106.885 29.3645 106.078 29.3645C105.223 29.3645 104.606 29.078 104.083 28.505C103.609 27.9321 103.371 27.1681 103.371 26.3087V26.1654ZM104.463 26.3087C104.463 26.9294 104.606 27.5024 104.843 27.8843C105.128 28.3141 105.508 28.505 106.03 28.505C106.552 28.505 106.932 28.3141 107.217 27.8843C107.502 27.4546 107.645 26.9294 107.645 26.3087V26.1654C107.645 25.5447 107.502 25.0195 107.217 24.5898C106.932 24.1601 106.552 23.9691 106.03 23.9691C105.508 23.9691 105.128 24.1601 104.843 24.5898C104.558 25.0195 104.463 25.5447 104.463 26.1654V26.3087Z" fill="#BFC1CF"/>
<path d="M115.241 26.4519C115.241 27.3114 115.052 28.0276 114.624 28.5528C114.197 29.078 113.627 29.3645 112.915 29.3645C112.535 29.3645 112.203 29.3167 111.918 29.1735C111.633 29.0303 111.395 28.8393 111.205 28.6005V31.5609H110.113V23.2051H110.968L111.158 23.9691C111.348 23.6826 111.585 23.4438 111.87 23.3006C112.155 23.1574 112.487 23.0619 112.915 23.0619C113.675 23.0619 114.244 23.3483 114.672 23.9691C115.099 24.542 115.289 25.3537 115.289 26.3087V26.4519H115.241ZM114.149 26.3564C114.149 25.688 114.007 25.115 113.722 24.6853C113.437 24.2555 113.057 24.0168 112.535 24.0168C112.203 24.0168 111.965 24.0645 111.728 24.2555C111.49 24.3988 111.348 24.5898 111.205 24.8285V27.6933C111.348 27.9321 111.538 28.1231 111.728 28.2663C111.965 28.4095 112.203 28.4573 112.535 28.4573C113.057 28.4573 113.437 28.2663 113.722 27.8843C114.007 27.5023 114.102 27.0249 114.102 26.4042V26.3564H114.149Z" fill="#BFC1CF"/>
<path d="M120.417 24.0646H117.663V29.269H116.571V23.2051H120.417V24.0646Z" fill="#BFC1CF"/>
<path d="M120.939 26.1654C120.939 25.2582 121.177 24.542 121.651 23.9691C122.126 23.3961 122.791 23.1096 123.598 23.1096C124.453 23.1096 125.07 23.3961 125.592 23.9691C126.067 24.542 126.305 25.306 126.305 26.1654V26.3087C126.305 27.2159 126.067 27.9321 125.592 28.505C125.118 29.078 124.453 29.3645 123.598 29.3645C122.743 29.3645 122.126 29.078 121.604 28.505C121.129 27.9321 120.892 27.1681 120.892 26.3087V26.1654H120.939ZM122.031 26.3087C122.031 26.9294 122.174 27.5024 122.411 27.8843C122.696 28.3141 123.076 28.505 123.598 28.505C124.12 28.505 124.5 28.3141 124.785 27.8843C125.07 27.4546 125.213 26.9294 125.213 26.3087V26.1654C125.213 25.5447 125.07 25.0195 124.785 24.5898C124.5 24.1601 124.12 23.9691 123.598 23.9691C123.076 23.9691 122.696 24.1601 122.411 24.5898C122.126 25.0195 122.031 25.5447 122.031 26.1654V26.3087Z" fill="#BFC1CF"/>
<path d="M127.683 29.269V23.2051H130.057C130.864 23.2051 131.481 23.3484 131.909 23.6348C132.336 23.9213 132.573 24.351 132.573 24.8763C132.573 25.1627 132.478 25.4015 132.336 25.6402C132.146 25.8789 131.909 26.0222 131.624 26.1654C132.004 26.2609 132.289 26.4519 132.478 26.6907C132.668 26.9294 132.811 27.2159 132.811 27.5501C132.811 28.1231 132.621 28.5528 132.194 28.8393C131.766 29.1258 131.196 29.269 130.484 29.269H127.683ZM128.775 25.7357H130.057C130.532 25.7357 130.864 25.688 131.101 25.5447C131.339 25.4015 131.434 25.2105 131.434 24.924C131.434 24.6375 131.339 24.3988 131.101 24.2555C130.864 24.1123 130.532 24.0168 130.057 24.0168H128.775V25.7357ZM128.775 26.5952V28.4095H130.437C130.864 28.4095 131.149 28.3141 131.339 28.1708C131.529 28.0276 131.671 27.7888 131.671 27.5024C131.671 27.2159 131.576 26.9771 131.339 26.8339C131.149 26.6907 130.817 26.5952 130.437 26.5952H128.775Z" fill="#BFC1CF"/>
<path d="M135.422 25.497H136.941C137.654 25.497 138.223 25.688 138.603 26.0222C138.983 26.3564 139.173 26.8339 139.173 27.3591C139.173 27.9321 138.983 28.3618 138.556 28.7438C138.176 29.078 137.606 29.269 136.894 29.269H134.282V23.2051H135.374V25.497H135.422ZM135.422 26.3564V28.3618H136.941C137.321 28.3618 137.606 28.2663 137.796 28.0753C137.986 27.8843 138.081 27.6456 138.081 27.3591C138.081 27.0726 137.986 26.8339 137.796 26.6429C137.606 26.4519 137.321 26.3564 136.941 26.3564H135.422ZM141.31 29.269H140.218V23.2051H141.31V29.269Z" fill="#BFC1CF"/>
<path d="M146.961 23.2051H148.053V29.269H146.961V24.9718H146.913L144.254 29.269H143.162V23.2051H144.254V27.5024H144.302L146.961 23.2051ZM147.246 20.7223C147.293 21.1997 147.151 21.534 146.818 21.8204C146.533 22.1069 146.106 22.2502 145.584 22.2502C145.061 22.2502 144.682 22.1069 144.349 21.8204C144.064 21.534 143.922 21.1997 143.922 20.77V20.7223H144.777C144.777 20.961 144.824 21.152 144.966 21.343C145.109 21.4862 145.299 21.5817 145.584 21.5817C145.869 21.5817 146.059 21.4862 146.201 21.343C146.343 21.1997 146.391 21.0087 146.391 20.77H147.246V20.7223Z" fill="#BFC1CF"/>
<path d="M152.658 28.4095C152.943 28.4095 153.181 28.1708 153.276 27.6933C153.418 27.2159 153.513 26.4997 153.56 25.497L153.703 23.2051H157.692V28.4095H158.499V31.2744H157.407V29.269H153.133V31.2744H152.041V28.4095H152.658ZM154.653 25.497C154.605 26.2132 154.558 26.7861 154.463 27.2636C154.368 27.7411 154.273 28.1231 154.13 28.4095H156.599V24.2078H154.748L154.653 25.497Z" fill="#BFC1CF"/>
<path d="M159.449 26.1654C159.449 25.2582 159.686 24.542 160.161 23.9691C160.636 23.3961 161.301 23.1096 162.108 23.1096C162.963 23.1096 163.58 23.3961 164.102 23.9691C164.577 24.542 164.814 25.306 164.814 26.1654V26.3087C164.814 27.2159 164.577 27.9321 164.102 28.505C163.627 29.078 162.963 29.3645 162.108 29.3645C161.253 29.3645 160.636 29.078 160.114 28.505C159.591 27.9321 159.401 27.1681 159.401 26.3087V26.1654H159.449ZM160.541 26.3087C160.541 26.9294 160.683 27.5024 160.921 27.8843C161.206 28.3141 161.586 28.505 162.108 28.505C162.63 28.505 163.01 28.3141 163.295 27.8843C163.58 27.4546 163.722 26.9294 163.722 26.3087V26.1654C163.722 25.5447 163.58 25.0195 163.295 24.5898C163.01 24.1601 162.63 23.9691 162.108 23.9691C161.586 23.9691 161.206 24.1601 160.921 24.5898C160.636 25.0195 160.541 25.5447 160.541 26.1654V26.3087Z" fill="#BFC1CF"/>
<path d="M169.61 27.7889L171.605 23.1574H172.982V29.2213H171.889V25.0195H171.842L169.99 29.2213H169.23L167.331 24.924H167.284V29.2213H166.191V23.2051H167.616L169.61 27.7889Z" fill="#BFC1CF"/>
<path d="M79.2971 31.0356H84.8052L84.5203 31.3221V53.8588L84.8526 54.1453H79.2496L79.582 53.8588V42.9247L71.3674 54.0975H70.0378V31.3221L69.7529 31.0356H75.3085L75.0236 31.3221V42.0175L79.582 35.6671V31.3221L79.2971 31.0356Z" fill="#BFC1CF"/>
<path d="M87.9389 35.9059L95.2039 42.0175L102.326 36.0013H102.754V53.8588L103.086 54.1453H97.5306L97.8155 53.8588V45.5985L95.2514 48.2724L92.6398 45.5985V53.8588L92.9722 54.1453H87.3691L87.654 53.8588V35.9059H87.9389Z" fill="#BFC1CF"/>
<path d="M118.851 36.3833V53.811L119.136 54.0975H113.58L113.865 53.811V41.1103H110.778V53.8588L111.111 54.1453H105.508L105.84 53.8588V36.3356L105.555 36.0968H119.231L118.851 36.3833Z" fill="#BFC1CF"/>
<path d="M129.772 48.2246H134.283C134.283 52.6174 131.814 54.193 128.11 54.193C124.074 54.193 121.652 51.9489 121.652 48.1769V42.1607C121.652 38.8662 123.267 36.0491 128.205 36.0491C132.051 36.0491 134.283 37.959 134.283 41.8265C134.283 46.2192 130.152 46.9832 126.496 48.1291C126.448 49.9913 129.677 50.0868 129.772 48.2246ZM126.448 41.7788V43.5454C129.297 43.0679 129.63 42.5905 129.63 41.8743C129.677 40.2986 126.448 40.3463 126.448 41.7788Z" fill="#BFC1CF"/>
<path d="M149.953 42.1607V48.1291C149.953 52.8083 147.294 54.0975 143.495 54.0975C142.735 54.0975 142.403 54.0498 142.118 54.0498V61.5461L142.45 61.9758H136.8L137.132 61.5461V36.0491L139.601 37.2905C140.693 36.4788 141.643 36.0013 143.542 36.0013C147.294 36.0013 149.953 38.2455 149.953 42.1607ZM144.967 42.5427C144.967 41.4445 144.207 40.2508 142.118 41.0625V49.275H143.97C144.54 49.275 144.967 48.8453 144.967 48.3201V42.5427Z" fill="#BFC1CF"/>
<path d="M152.659 36.0968H157.597L157.36 36.3356V44.1661L161.016 40.3463V36.0968H165.432V53.8588L165.67 54.0975H160.779L161.016 53.8588V46.5535L153.989 54.0975H152.897V36.3356L152.659 36.0968Z" fill="#BFC1CF"/>
<path d="M180.627 54.0975L177.54 52.1399C176.211 54.002 174.217 54.2407 173.267 54.2407C169.801 54.2407 167.901 51.5669 167.901 48.3201C167.901 45.0733 169.943 42.304 174.312 42.304H176.069C176.069 41.158 175.594 40.9193 174.691 40.9193H170.038L169.658 41.158V35.9536L170.086 36.1446H175.071C178.538 36.1446 180.959 37.8635 180.959 42.0175V54.0975H180.627ZM176.258 46.4102H174.264C173.314 46.4102 172.507 46.9832 172.507 47.8426C172.507 48.6543 173.077 49.7525 175.024 49.0841L176.258 48.2246V46.4102Z" fill="#BFC1CF"/>
<path d="M188.129 53.811L188.414 54.0975H182.621L182.953 53.811L188.604 31.3221L188.319 31.0356H194.207L193.875 31.3221L199.62 53.811L199.905 54.0975H194.16L194.492 53.811L192.498 45.5985L191.358 38.2932H191.311L190.076 45.5985L188.129 53.811Z" fill="#BFC1CF"/>
<path d="M33.285 28.0276H37.7959L37.5585 28.2663V46.6967L37.7959 46.9355H33.2375L33.4749 46.6967V37.7202L26.7797 46.8877H25.6876V28.2186L25.4502 27.9798H30.0086L29.7712 28.2186V36.9563L33.4749 31.7519V28.1708L33.285 28.0276Z" fill="#BFC1CF"/>
<path d="M62.5354 31.5131C62.5354 31.5131 61.1583 33.1843 62.0131 37.0518C62.0131 37.0518 63.8649 45.503 61.3483 49.3228C61.3483 49.3228 60.9209 49.8958 61.0634 47.7949C61.0634 47.7949 60.636 41.8265 57.787 39.6301C57.787 39.6301 56.1251 38.4365 53.8934 38.7229C53.8934 38.7229 53.561 36.6698 55.6503 35.7149C55.6503 35.7149 53.3711 33.0888 54.2733 30.5582C54.2733 30.5582 57.2647 29.9852 58.8317 31.7996C58.8317 31.7996 60.0662 30.1285 62.0605 31.0356L62.5354 31.5131Z" fill="#BFC1CF"/>
<path d="M57.6923 43.9751C57.6923 43.9751 56.1728 44.2138 55.508 45.885C55.508 45.885 55.3181 43.1634 52.9439 43.2589C52.9439 43.2589 51.6144 44.93 53.6087 46.6012C53.6087 46.6012 52.0417 46.9832 51.7568 48.6543C51.7568 48.6543 53.9886 49.0363 55.3181 51.5192C55.3181 51.5192 56.6001 55.1479 54.0835 58.347C54.0835 58.347 53.3713 59.3019 54.3684 58.7767C54.3684 58.7767 56.8376 56.7236 58.2146 53.7633C58.6894 52.7606 60.2564 48.2723 57.9297 44.2138L57.6923 43.9751Z" fill="#BFC1CF"/>
<path d="M52.2314 54.5272C52.1839 54.5272 52.1839 54.5272 52.1839 54.4795C52.2314 54.2408 52.4213 53.5246 52.0415 52.6174L51.7566 52.3309C51.7566 52.3309 50.7594 52.6651 50.2371 53.2858C50.2371 53.3336 50.1896 53.3336 50.1896 53.2858C50.0472 53.0471 49.5249 52.2831 48.4327 52.3309L48.3853 52.3786C48.3853 52.7606 48.2428 55.148 46.4384 56.9146C46.4384 56.9146 44.729 59.1587 37.9864 61.9281C37.9864 61.9281 34.1877 63.3605 34.8525 67.7055C34.8525 67.7055 35.5173 71.0478 39.5059 71C39.5059 71 42.9247 70.8568 42.9721 67.6577C42.9721 67.3712 42.9247 66.9892 42.7347 66.5118C42.5448 66.1298 41.6426 65.3658 40.5505 65.8911L40.503 65.9388C40.503 65.9866 40.4555 66.0343 40.4555 66.1298C40.4555 66.3685 40.2656 66.7983 39.5533 66.846C39.3634 66.846 39.1735 66.7505 39.031 66.655C38.5562 66.3208 38.2238 64.9361 40.1706 64.3154C40.1706 64.3154 41.7376 63.6947 44.7765 65.3658C44.7765 65.3658 47.673 66.464 50.9494 63.7424L52.4688 62.3578C52.4688 62.3578 53.5135 61.4983 51.9465 61.9281C51.9465 61.9281 48.3378 63.3605 41.8325 63.265C41.8325 63.265 39.126 63.1217 37.9864 64.6496C37.749 64.9839 37.6065 65.3658 37.5116 65.8433C37.5116 66.7505 37.8914 67.2757 38.2238 67.61C38.6037 67.9442 39.126 68.1352 39.9332 67.8964C39.9332 67.8964 40.7879 67.61 40.7879 66.7983C40.7879 66.7983 40.7879 66.7505 40.8354 66.7505C41.0253 66.7505 41.7376 66.6073 42.0225 67.3235C42.1649 67.6577 42.1174 68.1352 41.9275 68.4694C41.5476 69.1379 40.4555 70.236 38.3188 69.6631C38.2713 69.6631 38.2238 69.6153 38.2238 69.6153C37.7965 69.3766 34.8525 67.8487 36.4194 64.8884C36.4194 64.8884 36.6569 64.4586 37.2267 63.9812C37.9389 63.3605 39.221 62.5965 41.2627 62.1668C41.2627 62.1668 48.3378 60.7344 52.8487 56.9624C52.8487 56.9624 53.6084 56.2939 54.0833 55.9597C54.0833 55.9597 54.0833 55.9597 54.0833 55.9119C54.0833 55.7209 53.7034 54.3363 52.2314 54.5272Z" fill="#BFC1CF"/>
<path d="M10.3987 54.5272C10.4462 54.5272 10.4462 54.5272 10.4462 54.4795C10.3987 54.2408 10.2088 53.5246 10.5887 52.6174L10.8736 52.3309C10.8736 52.3309 11.8707 52.6651 12.393 53.2858C12.393 53.3336 12.4405 53.3336 12.4405 53.2858C12.583 53.0471 13.1053 52.2831 14.1974 52.3309L14.2449 52.3786C14.2449 52.7606 14.3873 55.148 16.1917 56.9146C16.1917 56.9146 17.9011 59.1587 24.6437 61.9281C24.6437 61.9281 28.4424 63.3605 27.7776 67.7055C27.7776 67.7055 27.1129 71.0478 23.1243 71C23.1243 71 19.7055 70.8568 19.658 67.6577C19.658 67.3712 19.7055 66.9893 19.8954 66.5118C20.0853 66.1298 20.9875 65.3658 22.0796 65.8911L22.1271 65.9388C22.1271 65.9866 22.1746 66.0343 22.1746 66.1298C22.1746 66.3685 22.3645 66.7983 23.0768 66.846C23.2667 66.846 23.4567 66.7505 23.5991 66.655C24.0739 66.3208 24.4063 64.9361 22.4595 64.3154C22.4595 64.3154 20.8926 63.6947 17.8536 65.3658C17.8536 65.3658 14.9571 66.464 11.6808 63.7424L10.1613 62.3578C10.1613 62.3578 9.11668 61.4983 10.6836 61.9281C10.6836 61.9281 14.2924 63.3605 20.7976 63.265C20.7976 63.265 23.5041 63.1217 24.6437 64.6496C24.8812 64.9839 25.0236 65.3658 25.1186 65.8433C25.1186 66.7505 24.7387 67.2757 24.4063 67.61C24.0265 67.9442 23.5041 68.1352 22.6969 67.8964C22.6969 67.8964 21.8422 67.61 21.8422 66.7983C21.8422 66.7983 21.8422 66.7505 21.7947 66.7505C21.6048 66.7505 20.8926 66.6073 20.6077 67.3235C20.4652 67.6577 20.5127 68.1352 20.7026 68.4694C21.0825 69.1379 22.1746 70.2361 24.3114 69.6631C24.3588 69.6631 24.4063 69.6153 24.4063 69.6153C24.8337 69.3766 27.7776 67.8487 26.2107 64.8884C26.2107 64.8884 25.9733 64.4587 25.4035 63.9812C24.6912 63.3605 23.4092 62.5965 21.3674 62.1668C21.3674 62.1668 14.2924 60.7344 9.78144 56.9624C9.78144 56.9624 9.02171 56.2939 8.54688 55.9597C8.54688 55.9597 8.54688 55.9597 8.54688 55.9119C8.59436 55.7209 8.97423 54.3363 10.3987 54.5272Z" fill="#BFC1CF"/>
<path d="M0.142023 31.5131C0.142023 31.5131 1.51904 33.1843 0.66434 37.0518C0.66434 37.0518 -1.18751 45.503 1.32911 49.3228C1.32911 49.3228 1.75646 49.8958 1.61401 47.7949C1.61401 47.7949 2.04136 41.8265 4.89036 39.6301C4.89036 39.6301 6.55228 38.4365 8.784 38.7229C8.784 38.7229 9.11638 36.6698 7.02711 35.7149C7.02711 35.7149 9.30632 33.0888 8.40413 30.5582C8.40413 30.5582 5.41268 29.9852 3.84573 31.7996C3.84573 31.7996 2.61116 30.1285 0.616857 31.0356L0.142023 31.5131Z" fill="#BFC1CF"/>
<path d="M4.98548 43.9751C4.98548 43.9751 6.50495 44.2138 7.16971 45.885C7.16971 45.885 7.35965 43.1634 9.73381 43.2589C9.73381 43.2589 11.0633 44.93 9.06905 46.6012C9.06905 46.6012 10.636 46.9832 10.9209 48.6543C10.9209 48.6543 8.68918 49.0363 7.35965 51.5192C7.35965 51.5192 6.07759 55.1479 8.59421 58.347C8.59421 58.347 9.30646 59.3019 8.30931 58.7767C8.30931 58.7767 5.84018 56.7236 4.46316 53.7633C3.98833 52.7606 2.42137 48.2723 4.74806 44.2138L4.98548 43.9751Z" fill="#BFC1CF"/>
<path d="M37.8442 4.63147C37.6543 5.39543 37.6543 6.78009 37.6543 6.78009H36.4672V5.15669C37.6543 5.10894 37.037 0.429724 37.037 0.429724C37.037 0.429724 34.9477 2.48285 34.4729 3.58104C33.9981 4.67922 34.5204 5.25219 34.5204 5.25219V6.78009H32.6211V5.25219C34.9477 4.29724 31.6239 0 31.6239 0C31.6239 0 28.3001 4.29724 30.6268 5.25219V6.78009H28.7274V5.25219C28.7274 5.25219 29.2497 4.67922 28.7749 3.58104C28.3001 2.48285 26.2108 0.429724 26.2108 0.429724C26.2108 0.429724 25.5935 5.10894 26.7806 5.15669V6.78009H25.641C25.641 6.78009 25.641 5.39543 25.4511 4.63147C25.2611 3.86752 23.7891 0.238736 22.792 1.6234V1.7189C22.792 1.7189 24.6913 3.24681 24.8813 7.63954V10.7431H31.6239H38.3665V7.63954C38.5565 3.24681 40.4558 1.7189 40.4558 1.7189V1.6234C39.4587 0.238736 38.0342 3.86752 37.8442 4.63147Z" fill="#BFC1CF"/>
<path d="M21.1773 43.0202C17.9485 37.0518 18.6607 27.7411 18.6607 27.7411C24.5486 26.7384 28.7272 24.8285 30.5316 23.8736C30.674 23.8258 30.8639 23.6826 31.1963 23.5393C31.4337 23.3961 31.5287 23.3484 31.5287 23.3484C33.1431 22.4412 36.277 20.5313 39.0311 18.1917H39.0786C36.6569 17.3322 34.0928 16.1863 31.5287 14.6106C21.1773 20.961 10.7785 20.5313 10.7785 20.5313V30.033C10.4936 41.5878 15.4318 49.1318 15.4318 49.1318C17.4261 52.3786 19.7053 54.957 21.9371 56.9146C21.9845 56.9146 26.7329 55.1002 29.8668 53.2381C23.9314 48.8931 21.1773 43.0202 21.1773 43.0202Z" fill="#BFC1CF"/>
<path d="M52.2316 30.0329V20.5313C52.2316 20.5313 47.2458 20.7223 40.7406 18.7646H40.7881C40.7881 18.7646 37.5592 22.1069 33.4282 24.351C35.5649 25.3537 39.3636 26.8816 44.3494 27.7411C44.3494 27.7411 45.0616 37.0518 41.8327 43.0202C41.8327 43.0202 39.1262 48.8931 33.2382 53.2381C33.2382 53.2381 27.4928 57.2488 23.4092 58.156C27.3503 61.3073 30.8166 62.5965 31.4339 62.8352V62.883C31.4339 62.883 31.4814 62.883 31.5288 62.8352H31.5763C32.621 62.4533 41.5953 59.0155 47.5782 49.0841C47.5307 49.1318 52.5165 41.5878 52.2316 30.0329Z" fill="#BFC1CF"/>
</g>
<defs>
<clipPath id="clip0">
<rect width="200" height="71" fill="white"/>
</clipPath>
</defs>
</svg>
