<svg width="50" height="42" viewBox="0 0 50 42" fill="none" xmlns="http://www.w3.org/2000/svg">
<path d="M47.8845 15.8571H46.224V9.75179C47.9656 8.94847 49.1778 7.18705 49.1778 5.14682C49.1778 2.35161 46.9037 0.077588 44.1086 0.077588C41.3134 0.077588 39.0394 2.3517 39.0394 5.14682C39.0394 7.18724 40.2517 8.94866 41.9932 9.75179V14.8826C35.3909 0.290479 14.6182 0.268896 8.00672 14.8826V9.75179C9.74832 8.94847 10.9607 7.18705 10.9607 5.14662C10.9607 2.35141 8.6866 0.0773926 5.89149 0.0773926C3.09638 0.0773926 0.822069 2.35151 0.822069 5.14672C0.822069 7.18714 2.03437 8.94857 3.77587 9.75169V15.857H2.11543C0.947166 15.857 0 16.8042 0 17.9725V27.1393C0 28.3075 0.947166 29.2547 2.11543 29.2547H7.59647C13.7074 45.1191 36.2712 45.1566 42.4013 29.2547H47.8846C49.0528 29.2547 50 28.3075 50 27.1393V17.9725C49.9999 16.8043 49.0527 15.8571 47.8845 15.8571ZM31.5516 13.471C32.2511 12.7715 33.3853 12.7715 34.0849 13.471C34.7844 14.1705 34.7844 15.3048 34.0849 16.0043C33.3854 16.7038 32.2511 16.7038 31.5516 16.0043C30.8521 15.3048 30.8521 14.1706 31.5516 13.471ZM25.0001 9.70794C25.9894 9.70794 26.7914 10.51 26.7914 11.4992C26.7914 12.4885 25.9893 13.2906 25.0001 13.2906C24.0108 13.2906 23.2087 12.4885 23.2087 11.4992C23.2087 10.51 24.0107 9.70794 25.0001 9.70794ZM13.9431 24.3472C12.9538 24.3472 12.1518 23.5451 12.1518 22.5559C12.1518 21.5666 12.9539 20.7646 13.9431 20.7646C14.9324 20.7646 15.7344 21.5666 15.7344 22.5559C15.7344 23.5453 14.9325 24.3472 13.9431 24.3472ZM18.4483 31.6409C17.7488 32.3404 16.6146 32.3404 15.915 31.6409C15.2155 30.9414 15.2155 29.8071 15.915 29.1076C16.6146 28.4081 17.7488 28.4081 18.4483 29.1076C19.1478 29.8072 19.1478 30.9414 18.4483 31.6409ZM18.4483 16.0043C17.7488 16.7038 16.6146 16.7038 15.915 16.0043C15.2155 15.3048 15.2155 14.1705 15.915 13.471C16.6146 12.7715 17.7488 12.7715 18.4483 13.471C19.1478 14.1706 19.1478 15.3048 18.4483 16.0043ZM25.0001 35.4041C24.0107 35.4041 23.2087 34.602 23.2087 33.6128C23.2087 32.6234 24.0108 31.8215 25.0001 31.8215C25.9893 31.8215 26.7914 32.6235 26.7914 33.6128C26.7913 34.602 25.9892 35.4041 25.0001 35.4041ZM25.0001 28.1422C21.9143 28.1422 19.4139 25.6418 19.4139 22.5561C19.4139 19.4703 21.9143 16.9699 25.0001 16.9699C28.0858 16.9699 30.5862 19.4703 30.5862 22.5561C30.5862 25.6418 28.0857 28.1422 25.0001 28.1422ZM34.0849 31.6409C33.3854 32.3404 32.2511 32.3404 31.5516 31.6409C30.852 30.9414 30.852 29.8071 31.5516 29.1076C32.2511 28.4081 33.3853 28.4081 34.0849 29.1076C34.7844 29.8072 34.7844 30.9414 34.0849 31.6409ZM36.0568 24.3472C35.0674 24.3472 34.2655 23.5451 34.2655 22.5559C34.2655 21.5666 35.0675 20.7646 36.0568 20.7646C37.046 20.7646 37.8481 21.5666 37.8481 22.5559C37.848 23.5453 37.046 24.3472 36.0568 24.3472Z" fill="#DB5461"/>
</svg>
