<svg width="50" height="50" viewBox="0 0 50 50" fill="none" xmlns="http://www.w3.org/2000/svg">
<path d="M42.8943 17.0061H34.2555C34.6606 16.4749 35.0983 15.8824 35.538 15.2545C37.8318 11.9781 38.947 9.52441 38.947 7.75312C38.947 3.47803 35.4689 0 31.1939 0C26.9189 0 23.4408 3.47803 23.4408 7.75312C23.4408 9.52441 24.5559 11.9781 26.8498 15.2545C28.4472 17.536 30.0214 19.3548 30.0876 19.4311C30.3658 19.7517 30.7693 19.9357 31.1938 19.9357H42.8943C45.197 19.9357 47.0703 21.8091 47.0703 24.1116C47.0703 26.4143 45.197 28.2876 42.8943 28.2876H34.1188C32.347 25.0655 28.9192 22.8769 24.9896 22.8769C21.0601 22.8769 17.6324 25.0655 15.8606 28.2876H10.8562C4.87012 28.2876 0 33.1576 0 39.1438C0 45.1299 4.87012 50 10.8562 50H24.8531C24.8682 50 24.8824 49.997 24.8969 49.995C24.9277 49.997 24.9585 50 24.9896 50C25.4141 50 25.8176 49.8159 26.0958 49.4954C26.1892 49.3878 28.4082 46.8241 30.6625 43.6043C33.8506 39.0508 35.4004 35.6762 35.4004 33.2875C35.4004 32.5788 35.3289 31.8865 35.1934 31.2172H42.8942C46.8123 31.2172 49.9999 28.0296 49.9999 24.1115C50 20.1936 46.8124 17.0061 42.8943 17.0061ZM32.6588 8.02861C32.6942 8.81973 31.9602 9.49346 31.1939 9.49346C30.3728 9.49346 29.7646 8.82227 29.7291 8.02861C29.6937 7.2375 30.4277 6.56377 31.1939 6.56377C32.0151 6.56377 32.6232 7.23496 32.6588 8.02861ZM24.9897 35.1443C24.1686 35.1443 23.5604 34.4731 23.5249 33.6795C23.4895 32.8884 24.2235 32.2146 24.9897 32.2146C25.8109 32.2146 26.419 32.8858 26.4546 33.6795C26.49 34.4706 25.756 35.1443 24.9897 35.1443ZM2.92969 39.1437C2.92969 34.773 6.48555 31.2173 10.8562 31.2173H14.7859C14.6504 31.8866 14.5789 32.5789 14.5789 33.2876C14.5789 35.6762 16.1287 39.0509 19.3167 43.6043C20.2286 44.9068 21.1347 46.1018 21.8967 47.0704H10.8562C6.48555 47.0703 2.92969 43.5145 2.92969 39.1437Z" fill="#DB5461"/>
</svg>
