<svg width="50" height="34" viewBox="0 0 50 34" fill="none" xmlns="http://www.w3.org/2000/svg">
<path d="M34.2705 28.7261V24.2811H4.21387V27.1816C4.21387 28.0547 4.92168 28.7625 5.79473 28.7625H9.17647C9.17637 28.7749 9.17549 28.7872 9.17549 28.7996C9.17549 31.391 11.2838 33.4993 13.8752 33.4993C16.4666 33.4993 18.5749 31.391 18.5749 28.7996C18.5749 28.7831 18.5738 28.7668 18.5736 28.7504L34.2667 28.7262H34.2705V28.7261ZM13.8753 30.3598C13.0017 30.3598 12.2934 29.6516 12.2934 28.7779C12.2934 27.9043 13.0016 27.196 13.8753 27.196C14.749 27.196 15.4572 27.9042 15.4572 28.7779C15.4572 29.6516 14.7489 30.3598 13.8753 30.3598Z" fill="#DB5461"/>
<path d="M1.03799 21.2672H34.2705V2.31997C34.2705 2.31675 34.271 2.31362 34.271 2.3104V1.64976C34.271 1.01519 33.7565 0.500732 33.122 0.500732H1.14902C0.514453 0.50083 0 1.01528 0 1.64985V20.1238C0 20.7208 0.455469 21.2113 1.03799 21.2672ZM26.2035 6.61157C26.2035 5.75063 26.9015 5.05269 27.7624 5.05269C28.6233 5.05269 29.3213 5.75063 29.3213 6.61157V15.1297C29.3213 15.9907 28.6233 16.6886 27.7624 16.6886C26.9015 16.6886 26.2035 15.9907 26.2035 15.1297V6.61157ZM19.0652 6.49243C19.0652 5.63149 19.7632 4.93354 20.6241 4.93354C21.4851 4.93354 22.183 5.63149 22.183 6.49243V15.0107C22.183 15.8716 21.4851 16.5696 20.6241 16.5696C19.7632 16.5696 19.0652 15.8716 19.0652 15.0107V6.49243ZM11.9271 6.67114C11.9271 5.8102 12.625 5.11226 13.4859 5.11226C14.3469 5.11226 15.0448 5.8102 15.0448 6.67114V15.1893C15.0448 16.0502 14.3469 16.7482 13.4859 16.7482C12.625 16.7482 11.9271 16.0502 11.9271 15.1893V6.67114ZM4.78887 6.70073C4.78887 5.8398 5.48682 5.14185 6.34775 5.14185C7.20869 5.14185 7.90664 5.8398 7.90664 6.70073V15.219C7.90664 16.0799 7.20869 16.7779 6.34775 16.7779C5.48682 16.7779 4.78887 16.0799 4.78887 15.219V6.70073Z" fill="#DB5461"/>
<path d="M49.8888 16.3918H42.8198C41.5827 16.3918 40.5763 15.2944 40.5763 13.9457V9.74519C40.5763 8.48523 41.527 7.46023 42.6955 7.46023H45.8642L44.907 5.33835C44.5366 4.51707 43.7192 3.98914 42.8184 3.98914H37.2842V28.7261H38.5314C38.5311 28.7506 38.5296 28.7749 38.5296 28.7995C38.5296 31.3909 40.6379 33.4992 43.2293 33.4992C45.8207 33.4992 47.929 31.3909 47.929 28.7995C47.929 28.7749 47.9275 28.7507 47.9271 28.7261H48.4309C49.2974 28.7261 49.9997 28.0236 49.9997 27.1572V16.969C49.9997 16.7686 49.9625 16.5776 49.8888 16.3918ZM43.2292 30.3443C42.3556 30.3443 41.6473 29.6361 41.6473 28.7624C41.6473 27.8887 42.3555 27.1804 43.2292 27.1804C44.1028 27.1804 44.8111 27.8887 44.8111 28.7624C44.8111 29.6361 44.1029 30.3443 43.2292 30.3443Z" fill="#DB5461"/>
<path d="M43.6943 13.274H48.4868L47.2707 10.5781H43.6943V13.274Z" fill="#DB5461"/>
</svg>
