<svg width="12" height="12" viewBox="0 0 12 12" fill="none" xmlns="http://www.w3.org/2000/svg">
<path d="M11.8596 10.5139L11.858 10.5154V10.5116L11.2811 11.0895C10.5349 11.8514 9.44816 12.1649 8.41525 11.9162C7.3746 11.6354 6.38533 11.1883 5.48493 10.592C4.64841 10.0529 3.87318 9.4227 3.17331 8.71269C2.52934 8.06812 1.95082 7.36034 1.44622 6.59996C0.894287 5.78176 0.457432 4.89046 0.148061 3.95138C-0.206591 2.84819 0.0872996 1.63767 0.907231 0.824406L1.58286 0.143142C1.77071 -0.0471219 2.07594 -0.0477946 2.26459 0.141617L2.2661 0.143142L4.39931 2.29413C4.588 2.48354 4.58867 2.79132 4.40082 2.98154L4.39931 2.98306L3.14671 4.24611C2.78729 4.60457 2.7421 5.17419 3.04044 5.58571C3.49349 6.21266 3.99484 6.8026 4.53978 7.35016C5.14736 7.96545 5.80787 8.52516 6.51357 9.02275C6.92133 9.30954 7.47415 9.26119 7.82689 8.90793L9.03773 7.66785C9.22557 7.47759 9.53081 7.47692 9.71945 7.66633L9.72097 7.66785L11.858 9.82651C12.0467 10.0159 12.0474 10.3236 11.8596 10.5139Z" fill="white"/>
</svg>
