<svg version="1.1" id="Shape_1_1_" xmlns="http://www.w3.org/2000/svg" x="0px" y="0px"
     viewBox="0 0 101.5 180.8" style="enable-background:new 0 0 101.5 180.8;" xml:space="preserve">
<style type="text/css">
    @keyframes justRotate {
    0% {
        transform: scale(0,0);
    }
    50% {
        transform: scale(1,1);
    }
    100% {
        transform: scale(0,0);

    }
    }
	.st0{fill-rule:evenodd;clip-rule:evenodd;fill:#000;}
    .st{
        animation-name: justRotate;
        animation: justRotate 2s infinite;
        animation-delay: 0s;
        animation-timing-function: linear;
    }
	.st1{transform-origin: 10px 150px; animation-delay: -1s;}
	.st2{transform-origin: 50px 150px; animation-delay: -.5s;}
	.st3{transform-origin: 90px 150px; animation-delay: 0s;}
</style>
	<g id="Shape_1">
		<g>
			<path class="st0" d="M43.5,51.9c3.8-0.4,6.5-3.9,5.9-7.7c0-0.2-0.3-0.2-0.3,0c-1.3,3.1-4.2,5.4-7.7,5.7c-1.1,0.1-2.1,0-3.1-0.2
				c-0.2,0-0.3,0.2-0.2,0.3C39.5,51.4,41.4,52.1,43.5,51.9z M63.1,23.2c0.4,0.8,1.3,1.1,2.1,0.7l7.5-3.9c0.8-0.4,1.1-1.3,0.7-2.1
				l-8.8-17c-0.4-0.8-1.3-1.1-2.1-0.7L55,4.1c-0.8,0.4-1.1,1.3-0.7,2.1L63.1,23.2z M48.1,84.7c0.1-2.6-2.3-8.6-3.5-11.4
				c-2.4-5.6-7.1-6.4-14.3-9.7c-3.7-1.7-13-5.1-13-5.1c-1.8-0.7-2.4-2.4-1.7-4.2c0.7-1.8,2.9-2.4,4.7-1.8c5.1,1.7,9.7,3.8,18.3,7.1
				c5.6,2.1,8.1,0.7,11.9-1.4c2.7-1.5,5.4-2.5,6.1-7.2c0.4-2.8,2.1-16.3,2.6-20.4c0-0.2-0.1-0.3-0.3-0.4c-2.6-0.5-5.3-0.7-8.1-0.7
				c-25.1,0-45.5,20.4-45.5,45.7c0,21,14.1,38.6,33.2,44c0.3,0.1,0.6-0.1,0.7-0.3l6.2-12.8c0.8-1.7,1.5-4.1,1.6-6
				C47,100,48.1,88.5,48.1,84.7z M42.2,36.9c4.8-0.5,9.1,3.1,9.5,7.9c0.5,4.8-3.1,9.1-7.9,9.6c-4.8,0.5-9.1-3.1-9.5-7.9
				C33.9,41.7,37.4,37.4,42.2,36.9z M66.3,32.2c-0.2-0.1-0.4,0.1-0.4,0.3l-1.6,15.2C63.4,56,64.9,64.2,67.7,72
				c3.3,9.1,8.2,20.6,8.8,22.6c0.3,0.9,0.4,1.8,0.3,2.6c-0.2,2-1,3.2-2.4,4.9c-1.6,1.9-4.2,5-5.9,6.7c-1.3,1.3-3.4,3.3-5.6,1.4
				c-2.2-2-1.1-4.2,0.2-5.8c2-2.3,3.5-3.8,5.8-6.5c0.5-0.5,0.6-1.4,0.2-2.3c-0.7-1.4-2.4-4.7-2.9-5.8c-0.9-1.7-2.3-2.3-4.1-1.7
				L58.9,89c-1.8,0.6-2.8,2.6-2.9,4.5c0,0-1,7.3-1.3,9.8c-0.2,1.9-0.9,3.6-1.8,5.2l-6.4,11.4c-0.2,0.3,0,0.7,0.4,0.7
				c1.8,0.2,3.6,0.2,5.4,0.1c23.7-0.7,43-19.9,44-43.7C97.1,56.5,84.3,38.8,66.3,32.2z"/>
		</g>
        <circle class="st1 st" cx="10" cy="150" r="10"/>
        <circle class="st2 st" cx="50" cy="150" r="10"/>
        <circle class="st3 st" cx="90" cy="150" r="10"/>
	</g>
</svg>
