<svg width="100" height="70" viewBox="0 0 100 70" fill="none" xmlns="http://www.w3.org/2000/svg">
<path d="M89.0625 0.625H10.9375C4.90664 0.625 0 5.53164 0 11.5625V58.4375C0 64.4684 4.90664 69.375 10.9375 69.375H89.0625C95.0934 69.375 100 64.4684 100 58.4375V11.5625C100 5.53164 95.0934 0.625 89.0625 0.625ZM10.9375 6.875H89.0625C91.6471 6.875 93.75 8.97793 93.75 11.5625V17.8125H6.25V11.5625C6.25 8.97793 8.35293 6.875 10.9375 6.875ZM89.0625 63.125H10.9375C8.35293 63.125 6.25 61.0221 6.25 58.4375V24.0625H93.75V58.4375C93.75 61.0221 91.6471 63.125 89.0625 63.125Z" fill="#58629D"/>
<path d="M21.875 53.75H18.75C17.0242 53.75 15.625 52.3508 15.625 50.625V47.5C15.625 45.7742 17.0242 44.375 18.75 44.375H21.875C23.6008 44.375 25 45.7742 25 47.5V50.625C25 52.3508 23.6008 53.75 21.875 53.75Z" fill="#DB5461"/>
</svg>
