<svg width="238" height="101" viewBox="0 0 238 101" fill="none" xmlns="http://www.w3.org/2000/svg">
<path fill-rule="evenodd" clip-rule="evenodd" d="M22.532 73.6621C12.314 73.6621 7.66351 76.4677 5.82951 82.3398L0 101H198.596C208.814 101 213.465 98.1944 215.299 92.3223L221.128 73.6621H22.532ZM46.4396 47.6292H36.6146C21.2875 47.6292 32.4226 15.2022 45.3261 15.2022H60.8496C63.3386 15.2022 67.7271 15.6589 69.8886 9.52584L73.2291 0H51.9416C40.4136 0 31.4401 4.04522 24.9555 10.8307C13.755 22.4444 9.95602 40.5827 12.6415 49.2603C15.196 57.2855 22.139 62.5704 33.0121 62.7009L41.4616 62.7661H51.8761L54.4306 55.1324C56.3301 49.7171 52.0726 47.6292 46.4396 47.6292ZM166.043 34.1886L169.252 23.8146H134.996C129.297 23.8146 126.743 25.3805 125.76 28.6428L122.551 39.0168H156.807C162.506 39.0168 165.06 37.4509 166.043 34.1886ZM117.442 52.4574L114.232 62.8314H148.489C154.122 62.8314 156.742 61.2655 157.724 58.0032L160.934 47.6292H126.677C121.044 47.6292 118.49 49.1951 117.442 52.4574ZM174.034 10.4393L177.243 0.0652455H142.987C137.288 0.0652455 134.734 1.63114 133.751 4.89341L130.542 15.2674H164.798C170.431 15.2674 172.986 13.7016 174.034 10.4393ZM122.289 12.5271C120.848 2.8708 115.673 0.0652455 103.097 0.0652455H80.1721L66.8101 39.0168H75.2596C80.3032 39.0168 82.8577 39.082 85.5432 31.905L91.1107 15.2022H99.6257C106.896 15.2022 105.259 24.2713 101.591 33.0795C98.3157 40.8437 92.6172 47.6944 85.7397 47.6944H71.5261C65.8276 47.6944 63.2076 49.2603 62.1596 52.5226L58.6226 62.8966H69.0371L79.2551 62.8314C88.2942 62.7662 95.6957 62.1137 104.342 54.3495C113.512 46.0633 124.123 24.7933 122.289 12.5271ZM237.438 0H217.591L198.924 19.7694C196.762 22.053 194.535 24.3366 192.374 27.0116H192.177L201.478 0H185.3L163.488 62.8314H179.667L186.61 43.062L193.815 36.9942L199.513 54.8714C201.282 60.4173 203.116 62.8314 207.046 62.8314H219.425L206.718 27.7293L237.438 0Z" fill="#00B33C"/>
</svg>
