<svg width="401" height="62" viewBox="0 0 401 62" fill="none" xmlns="http://www.w3.org/2000/svg">
<g clip-path="url(#clip0)">
<path d="M302.521 47.6977V34.0756H297.446V55.237H301.747L314.046 41.4435V55.237H319.12V34.0756H314.82L302.521 47.6977ZM357.05 47.8691V34.0756H351.975V55.237H356.276L368.575 41.3579V55.237H373.649V34.0756H369.177L357.05 47.8691ZM341.052 42.3003H329.871V34.0756H324.797V55.237H329.871V46.9266H341.052V55.237H346.127V34.0756H341.052V42.3003ZM279.127 34.0756L266.914 55.237H272.934L280.933 41.2722L289.018 55.237H295.296L283.083 34.0756H279.127ZM396.442 34.0756L384.4 47.8691V34.0756H379.326V55.237H383.626L395.926 41.3579V55.237H401V34.0756H396.442ZM272.848 34.0756H249.11V38.702H270.096L272.848 34.0756ZM249.11 42.3003V46.9266H265.365L268.118 42.3003H249.11ZM136.697 34.0756H112.959V38.702H133.945L136.697 34.0756ZM94.1234 29.4492H89.995L77.7818 50.6106H74.6855V61.4912H79.502V55.237H104.444V61.4912H109.261V50.6106H106.164L94.1234 29.4492ZM83.8024 50.6106L91.8011 36.6458L99.8859 50.6106H83.8024ZM172.047 33.5616C163.532 33.5616 159.489 38.7876 159.489 44.5278C159.489 50.6106 163.446 55.494 172.047 55.494C175.831 55.494 184.518 53.7805 184.518 44.5278C184.518 38.5306 180.647 33.5616 172.047 33.5616ZM172.047 50.8676C167.144 50.8676 165.08 48.0404 165.08 44.6135C165.08 40.8438 167.488 38.2736 172.047 38.2736C177.293 38.2736 179.013 40.8438 179.013 44.6135C179.013 49.1542 175.573 50.8676 172.047 50.8676ZM142.976 34.0756L130.763 55.237H136.783L144.782 41.2722L152.867 55.237H159.145L147.018 34.0756H142.976ZM238.359 55.237H243.433V34.0756H238.359V55.237ZM228.726 41.7006H220.985V34.0756H215.911V55.237H219.867H220.985H228.64C232.08 55.237 235.693 53.3522 235.693 48.2974C235.693 41.7862 231.134 41.7006 228.726 41.7006ZM228.468 50.782H220.985V46.0699H228.468C229.328 46.0699 230.704 46.3269 230.704 48.4688C230.618 50.3536 229.586 50.782 228.468 50.782ZM113.045 42.3003V46.9266H129.301L132.053 42.3003H113.045ZM249.11 55.237H260.635L263.301 50.6106H249.11V55.237ZM206.794 42.7286C208.17 42.1289 209.288 41.2722 209.288 38.959C209.288 34.5896 205.59 34.0756 203.01 34.0756H189.248V55.237H203.268C209.718 55.237 211.008 51.7244 211.008 48.4688C210.922 44.8705 208.858 43.414 206.794 42.7286ZM194.237 38.5306H202.407C203.612 38.5306 204.128 39.1303 204.128 40.4154C204.128 41.7006 203.354 42.3003 202.407 42.3003H194.237V38.5306ZM203.182 50.782H194.237V46.2413H203.182C204.644 46.2413 205.676 46.5839 205.676 48.4688C205.676 50.0109 205.074 50.782 203.182 50.782ZM113.045 55.237H124.57L127.236 50.6106H113.045V55.237Z" fill="black"/>
<path d="M40.2824 39.2998L19.1244 23.6215L13.9639 32.5316L38.1322 42.9837L40.2824 39.2998ZM43.5507 33.731L25.403 12.8266L20.2425 21.651L41.4005 37.3293L43.5507 33.731ZM47.421 26.9628L32.3696 0.917969L26.6071 10.7704L44.7548 31.5891L47.421 26.9628ZM6.48122 45.4683L0.804688 55.3207H30.9935L33.6598 50.6944L6.48122 45.4683ZM33.6598 55.3207H41.6585L48.7112 43.1551L55.8498 55.3207H63.8486L48.7112 29.276L33.6598 55.3207ZM37.0141 44.9542L12.8458 34.5877L7.68533 43.4121L34.8639 48.6382L37.0141 44.9542Z" fill="#F9B000"/>
</g>
<defs>
<clipPath id="clip0">
<rect width="400.195" height="60.5713" fill="white" transform="translate(0.804688 0.917969)"/>
</clipPath>
</defs>
</svg>
