<svg width="222" height="94" viewBox="0 0 222 94" fill="none" xmlns="http://www.w3.org/2000/svg">
<g clip-path="url(#clip0)">
<path fill-rule="evenodd" clip-rule="evenodd" d="M143.063 73.936C139.041 75.0541 133.803 75.5199 129.314 75.5199C117.623 75.5199 109.953 69.4639 109.953 58.377C109.953 47.8489 117.155 41.0478 127.63 41.0478C129.969 41.0478 132.494 41.3273 133.99 42.0726V26.793H143.063V73.936ZM133.99 49.8987C132.587 49.2465 130.623 48.8738 128.378 48.8738C122.86 48.8738 119.213 52.2279 119.213 58.0975C119.213 64.3397 123.141 67.8801 129.594 67.8801C130.717 67.8801 132.494 67.8801 133.99 67.5074V49.8987ZM217.608 73.936C213.586 75.0541 208.349 75.5199 203.765 75.5199C192.167 75.5199 184.404 69.4639 184.404 58.377C184.404 47.8489 191.606 41.0478 202.082 41.0478C204.514 41.0478 206.946 41.3273 208.442 42.0726V26.793H217.608V73.936ZM208.442 49.8987C207.039 49.2465 205.168 48.8738 202.924 48.8738C197.312 48.8738 193.664 52.2279 193.664 58.0975C193.664 64.3397 197.686 67.8801 204.14 67.8801C205.262 67.8801 206.946 67.8801 208.442 67.5074V49.8987ZM157.373 49.8987C158.87 49.2465 161.021 49.0601 162.798 49.0601C168.41 49.0601 172.245 52.2279 172.245 57.9112C172.245 64.6192 167.943 67.6937 162.237 67.7869V75.5199H162.705C174.49 75.5199 181.505 69.0913 181.505 57.6317C181.505 47.1968 174.022 41.0478 162.985 41.0478C157.373 41.0478 151.855 42.3521 148.207 43.8427V88.0975H157.373V49.8987Z" fill="#3F3F42"/>
<path fill-rule="evenodd" clip-rule="evenodd" d="M76.4688 19.5273L77.9655 21.2044L78.8075 20.7385L76.4688 19.5273Z" fill="#DC0032"/>
<path fill-rule="evenodd" clip-rule="evenodd" d="M74.2246 18.3164L77.124 21.6705L78.1528 21.1115L77.0305 19.8071L74.2246 18.3164Z" fill="#DC0032"/>
<path fill-rule="evenodd" clip-rule="evenodd" d="M71.8857 17.1035L76.2818 22.1346L77.3105 21.5756L74.7852 18.5942L71.8857 17.1035Z" fill="#DC0032"/>
<path fill-rule="evenodd" clip-rule="evenodd" d="M69.6426 15.8926L75.4416 22.6007L76.4704 22.0417L72.4485 17.3833L69.6426 15.8926ZM80.7728 27.7249L80.1181 28.0975L80.7728 28.8429V27.7249Z" fill="#DC0032"/>
<path fill-rule="evenodd" clip-rule="evenodd" d="M67.3965 14.6797L74.5985 23.0649L75.6273 22.5059L70.2025 16.1704L67.3965 14.6797ZM80.3973 27.9095L79.3685 28.5617L80.7715 30.2387V28.4685L80.3973 27.9095H80.3973Z" fill="#DC0032"/>
<path fill-rule="evenodd" clip-rule="evenodd" d="M65.0576 13.4668L73.7561 23.529L74.8785 22.97L67.9571 14.9575L65.0576 13.4668ZM79.555 28.3736L78.5261 29.0258L80.7709 31.6345V29.8643L79.555 28.3736Z" fill="#DC0032"/>
<path fill-rule="evenodd" clip-rule="evenodd" d="M62.8135 12.2559L73.0085 23.9951L74.0373 23.4361L65.6194 13.7465L62.8135 12.2559ZM78.7138 28.9329L77.685 29.4919L80.7715 33.1255V31.3553L78.7138 28.9329Z" fill="#DC0032"/>
<path fill-rule="evenodd" clip-rule="evenodd" d="M60.5693 11.043L72.1673 24.4592L73.1962 23.9002L63.3753 12.5337L60.5693 11.043ZM77.8727 29.397L76.8438 29.956L80.7722 34.5213V32.7511L77.8727 29.397Z" fill="#DC0032"/>
<path fill-rule="evenodd" clip-rule="evenodd" d="M58.2305 9.83984L71.3249 24.9331L72.3537 24.3741L61.1298 11.3305L58.2305 9.83984ZM77.0302 29.8709L76.0015 30.4299L80.7715 35.9269V34.1567L77.0302 29.8709Z" fill="#DC0032"/>
<path fill-rule="evenodd" clip-rule="evenodd" d="M55.9863 8.62695L70.4837 25.4904L71.5126 24.8382L58.7923 10.1177L55.9863 8.62695ZM76.1892 30.3351L75.1603 30.8941L80.7721 37.4159V35.6457L76.1892 30.3351Z" fill="#DC0032"/>
<path fill-rule="evenodd" clip-rule="evenodd" d="M53.6475 7.41602L69.6413 25.9565L70.6702 25.3043L56.547 8.9067L53.6475 7.41602ZM75.4403 30.8011L74.318 31.3601L80.7716 38.8136V37.0434L75.4403 30.8011Z" fill="#DC0032"/>
<path fill-rule="evenodd" clip-rule="evenodd" d="M51.4014 6.20312L68.7982 26.4205L69.9206 25.7684L54.3009 7.69381L51.4014 6.20312ZM74.5972 31.2653L73.5684 31.8243L80.7702 40.3026V38.4393L74.5972 31.2653Z" fill="#DC0032"/>
<path fill-rule="evenodd" clip-rule="evenodd" d="M49.1572 4.99023L68.0506 26.8846L69.0795 26.2324L51.9632 6.48092L49.1572 4.99023ZM73.7561 31.7294L72.7272 32.2884L80.7709 41.6984V39.9282L73.7561 31.7294Z" fill="#DC0032"/>
<path fill-rule="evenodd" clip-rule="evenodd" d="M46.8184 3.68359L67.2083 27.3482L68.2371 26.696L49.7179 5.26745L46.8184 3.68359ZM72.9137 32.193L71.8849 32.752L80.7703 43.0936V41.3235L72.9137 32.193Z" fill="#DC0032"/>
<path fill-rule="evenodd" clip-rule="evenodd" d="M44.5752 2.47266L66.3681 27.8143L67.3969 27.2553L47.4747 4.05651L44.5752 2.47266ZM72.0735 32.659L71.0447 33.2181L80.7719 44.5845V42.7212L72.0735 32.659Z" fill="#DC0032"/>
<path fill-rule="evenodd" clip-rule="evenodd" d="M42.3311 1.35352L65.5268 28.279L66.5557 27.72L45.1369 2.8442L42.3311 1.35352ZM71.2323 33.1238L70.2034 33.6828L80.7724 45.9809V44.2107L71.2323 33.1238Z" fill="#DC0032"/>
<path fill-rule="evenodd" clip-rule="evenodd" d="M40.833 0.984375L64.6835 28.7484L65.7123 28.1894L42.8907 1.63655L42.3295 1.35705C41.8619 1.07754 41.3942 0.984375 40.833 0.984375ZM70.3889 33.5931L69.3601 34.1521L80.7709 47.382V45.6118L70.3889 33.5931Z" fill="#DC0032"/>
<path fill-rule="evenodd" clip-rule="evenodd" d="M40.8343 0.984375C40.4602 0.984375 40.086 1.07754 39.7119 1.17071L63.843 29.2142L64.9654 28.6552L41.1149 0.984375C41.0214 0.984375 40.9278 0.984375 40.8343 0.984375ZM69.642 34.059L68.6131 34.618L80.7722 48.8727V47.0093L69.642 34.059Z" fill="#DC0032"/>
<path fill-rule="evenodd" clip-rule="evenodd" d="M39.9925 1.08008C39.8054 1.17325 39.5248 1.26641 39.4313 1.35958L38.8701 1.63909L63.0947 29.6826L64.1236 29.1236L39.9925 1.08008ZM68.8002 34.5274L67.7713 35.1795L80.7722 50.2727V48.5025L68.8002 34.5274Z" fill="#DC0032"/>
<path fill-rule="evenodd" clip-rule="evenodd" d="M39.0572 1.44922L38.0283 2.00823L62.2529 30.1449L63.2818 29.5859L39.0572 1.44922ZM67.9584 34.9897L66.9295 35.6418L80.7722 51.6667V49.8965L67.9584 34.9897Z" fill="#DC0032"/>
<path fill-rule="evenodd" clip-rule="evenodd" d="M38.2134 1.91211L37.1846 2.47112L61.4092 30.6078L62.438 30.0488L38.2134 1.91211ZM67.1146 35.4526L66.0858 36.1047L80.7702 53.1545V51.3843L67.1146 35.4526Z" fill="#DC0032"/>
<path fill-rule="evenodd" clip-rule="evenodd" d="M37.3726 2.38672L36.3438 2.94573L60.5683 31.0824L61.5972 30.5234L37.3726 2.38672ZM66.2738 35.9272L65.245 36.5794L80.7712 54.5608V52.7906L66.2738 35.9272Z" fill="#DC0032"/>
<path fill-rule="evenodd" clip-rule="evenodd" d="M36.5308 2.84961L35.502 3.40862L59.7267 31.5453L60.7554 30.9863L36.5308 2.84961ZM65.432 36.3901L64.4032 37.0422L80.7712 55.9553V54.1851L65.432 36.3901Z" fill="#DC0032"/>
<path fill-rule="evenodd" clip-rule="evenodd" d="M35.689 3.31445L34.6602 3.87345L58.8849 32.0101L59.9136 31.4511L35.689 3.31445ZM64.6838 36.8549L63.6549 37.5071L80.7712 57.445V55.6748L64.6838 36.8549Z" fill="#DC0032"/>
<path fill-rule="evenodd" clip-rule="evenodd" d="M34.8482 3.68359L33.8193 4.33577L58.1376 32.4725L59.1664 31.9135L34.8482 3.68359ZM63.8429 37.4104L62.8141 37.9694L80.7721 58.8391V57.0688L63.8429 37.4104Z" fill="#DC0032"/>
<path fill-rule="evenodd" clip-rule="evenodd" d="M34.0064 4.14844L32.9775 4.70745L57.2958 32.9373L58.3246 32.3783L34.0064 4.14844ZM63.0011 37.8752L61.9723 38.4343L80.7721 60.3286V58.4654L63.0011 37.8752Z" fill="#DC0032"/>
<path fill-rule="evenodd" clip-rule="evenodd" d="M33.1646 4.62109L32.1357 5.18011L56.454 33.5031L57.4828 32.851L33.1646 4.62109ZM62.1593 38.3479L61.1305 38.9069L80.7721 61.733V59.9628L62.1593 38.3479Z" fill="#DC0032"/>
<path fill-rule="evenodd" clip-rule="evenodd" d="M32.3208 5.08594L31.292 5.64494L55.6102 33.968L56.6391 33.3158L32.3208 5.08594ZM61.3156 38.8127L60.2867 39.3718L80.7702 63.1295V61.3593L61.3156 38.8127Z" fill="#DC0032"/>
<path fill-rule="evenodd" clip-rule="evenodd" d="M31.48 5.54883L30.4512 6.10784L54.7694 34.4309L55.7983 33.7787L31.48 5.54883ZM60.4748 39.2757L59.446 39.8347L80.7711 64.6173V62.7539L60.4748 39.2757Z" fill="#DC0032"/>
<path fill-rule="evenodd" clip-rule="evenodd" d="M30.6382 6.01367L29.6094 6.57268L53.9276 34.8957L54.9565 34.2435L30.6382 6.01367ZM59.7266 39.7405L58.6978 40.2995L80.7711 66.0138V64.2436L59.7266 39.7405Z" fill="#DC0032"/>
<path fill-rule="evenodd" clip-rule="evenodd" d="M29.7972 6.39258L28.6748 6.95158L53.1801 35.3678L54.209 34.7156L29.7972 6.39258ZM58.8856 40.2126L57.8567 40.7716L80.7719 67.4175V65.6474L58.8856 40.2126Z" fill="#DC0032"/>
<path fill-rule="evenodd" clip-rule="evenodd" d="M28.9534 6.85547L27.8311 7.41447L52.4299 35.9239C52.5235 35.7375 52.617 35.6444 52.8041 35.5512L53.3652 35.1785L28.9535 6.85547L28.9534 6.85547ZM58.0418 40.6755L57.013 41.2345L80.5829 68.6258C80.6764 68.3463 80.7699 68.0668 80.7699 67.7873V67.0419L58.0418 40.6755H58.0418Z" fill="#DC0032"/>
<path fill-rule="evenodd" clip-rule="evenodd" d="M28.1126 7.32031L26.9902 7.87932L52.1503 37.0409V36.6682C52.1503 36.3887 52.3373 36.016 52.5244 35.7365L28.1126 7.32031ZM57.201 41.1403L56.4528 41.6062C56.3592 41.6062 56.2657 41.6993 56.1722 41.6993L80.1162 69.5565C80.3968 69.1838 80.5838 68.8111 80.6773 68.4385L57.201 41.1403Z" fill="#DC0032"/>
<path fill-rule="evenodd" clip-rule="evenodd" d="M27.2707 7.78516L26.1484 8.34417L52.1501 38.5306V36.6672L27.2707 7.78516ZM54.582 41.2325L79.4613 70.2077C79.7419 70.0213 80.0225 69.6486 80.3031 69.3691L56.3591 41.6052C55.985 41.7915 55.4238 41.7915 55.0496 41.6052L54.582 41.2325Z" fill="#DC0032"/>
<path fill-rule="evenodd" clip-rule="evenodd" d="M26.4289 8.24805L25.3066 8.80705L78.6195 70.6706L79.3678 70.2979C79.4613 70.2047 79.5548 70.1115 79.6484 70.0184L55.1432 41.6022H55.0496L52.8984 40.2978C52.7113 40.2047 52.6178 40.0183 52.4307 39.832C52.2437 39.5525 52.2437 39.3662 52.1501 39.1798V38.155L26.4289 8.24805Z" fill="#DC0032"/>
<path fill-rule="evenodd" clip-rule="evenodd" d="M25.5882 8.71289L24.4658 9.2719L77.7787 71.1354L78.8075 70.5764L25.5882 8.71289Z" fill="#DC0032"/>
<path fill-rule="evenodd" clip-rule="evenodd" d="M24.7464 9.0918L23.624 9.65081L77.0304 71.6075L78.0593 71.0485L24.7464 9.0918Z" fill="#DC0032"/>
<path fill-rule="evenodd" clip-rule="evenodd" d="M23.9046 9.55664L22.7822 10.1157L76.1887 72.0723L77.2175 71.5133L23.9046 9.55664Z" fill="#DC0032"/>
<path fill-rule="evenodd" clip-rule="evenodd" d="M23.0638 10.0195L21.9414 10.5785L75.3479 72.5352L76.3768 71.9762L23.0638 10.0195Z" fill="#DC0032"/>
<path fill-rule="evenodd" clip-rule="evenodd" d="M22.1265 10.4844L21.0977 11.0434L74.5042 73.0932L75.533 72.4411L22.1265 10.4844Z" fill="#DC0032"/>
<path fill-rule="evenodd" clip-rule="evenodd" d="M21.2847 10.957L20.2559 11.516L73.6624 73.5659L74.6912 72.9137L21.2847 10.957Z" fill="#DC0032"/>
<path fill-rule="evenodd" clip-rule="evenodd" d="M20.4429 11.4219L19.4141 11.9809L72.9141 74.0308L73.943 73.3786L20.4429 11.4219Z" fill="#DC0032"/>
<path fill-rule="evenodd" clip-rule="evenodd" d="M19.6021 11.791L18.5732 12.35L72.0733 74.4931L73.1021 73.8409L19.6021 11.791Z" fill="#DC0032"/>
<path fill-rule="evenodd" clip-rule="evenodd" d="M18.7603 12.2559L17.7314 12.8149L71.2315 74.9579L72.2604 74.3989L18.7603 12.2559Z" fill="#DC0032"/>
<path fill-rule="evenodd" clip-rule="evenodd" d="M17.9185 12.7188L16.8896 13.2778L42.8915 43.4641L43.7331 44.0231C44.1073 44.2094 44.4814 44.6753 44.4814 45.1411V45.2343L70.3897 75.4208L71.4186 74.8618L17.9185 12.7188Z" fill="#DC0032"/>
<path fill-rule="evenodd" clip-rule="evenodd" d="M17.0777 13.1914L16.0488 13.7504L40.4606 42.1667L43.547 43.8436L17.0777 13.1914ZM44.3888 44.8684C44.3888 44.9616 44.4824 45.0548 44.4824 45.1479V46.7318L69.5489 75.8935L70.5777 75.3344L44.3888 44.8684Z" fill="#DC0032"/>
<path fill-rule="evenodd" clip-rule="evenodd" d="M16.2339 13.6562L15.2051 14.2153L38.0268 40.7682L41.1134 42.4452L16.2339 13.6562ZM44.4804 46.3582V48.1284L68.7987 76.3583L69.8275 75.7993L44.4804 46.3582Z" fill="#DC0032"/>
<path fill-rule="evenodd" clip-rule="evenodd" d="M15.3921 14.1211L14.3633 14.6801L35.6885 39.3697L38.6815 41.0467L15.3921 14.1211ZM44.4804 47.7547V49.6181L67.9569 76.8231L68.9857 76.2642L44.4804 47.7547Z" fill="#DC0032"/>
<path fill-rule="evenodd" clip-rule="evenodd" d="M14.5513 14.4902L13.5225 15.0492L33.2576 37.9686L36.2507 39.7388L14.5513 14.4902ZM44.4814 49.2419V51.0121L67.116 77.2854L68.1449 76.7264L44.4814 49.2419Z" fill="#DC0032"/>
<path fill-rule="evenodd" clip-rule="evenodd" d="M13.7095 14.9629L12.6807 15.5219L30.8258 36.5779L33.8188 38.3481L13.7095 14.9629ZM44.4813 50.6462V52.4164L66.2742 77.758L67.3031 77.199L44.4813 50.6462Z" fill="#DC0032"/>
<path fill-rule="evenodd" clip-rule="evenodd" d="M12.8677 15.4277L11.8389 15.9867L28.3939 35.2725L31.3869 36.9496L12.8677 15.4277ZM44.4813 52.0427V53.9061L65.4324 78.316L66.4613 77.6639L44.4813 52.0427Z" fill="#DC0032"/>
<path fill-rule="evenodd" clip-rule="evenodd" d="M12.0269 15.8926L10.998 16.4516L25.9632 33.874L28.9561 35.551L12.0269 15.8926ZM44.4823 53.5324V55.3026L64.6851 78.7809L65.714 78.1287L44.4823 53.5324Z" fill="#DC0032"/>
<path fill-rule="evenodd" clip-rule="evenodd" d="M11.1851 16.3555L10.1562 16.9145L23.5313 32.4735L26.6177 34.1505L11.1851 16.3555ZM44.4823 54.927V56.6972L63.8433 79.2438L64.8722 78.5916L44.4823 54.927Z" fill="#DC0032"/>
<path fill-rule="evenodd" clip-rule="evenodd" d="M10.3413 16.8203L9.3125 17.3793L21.0975 31.075L24.1841 32.8452L10.3413 16.8203ZM34.8466 47.0067L37.2784 49.8018V48.7769C37.2784 48.5906 37.0914 48.311 36.9043 48.2179L34.8466 47.0067ZM44.4803 56.3235V58.1869L62.9996 79.7086L64.0284 79.0564L44.4803 56.3235Z" fill="#DB0032"/>
<path fill-rule="evenodd" clip-rule="evenodd" d="M9.49955 17.1992L8.4707 17.7582L18.6656 29.6837L21.7522 31.4539L9.49955 17.1992ZM32.4148 45.6154L37.2784 51.2055V49.4353L35.5013 47.3856L32.4148 45.6154ZM44.4803 57.8205V59.5907L62.1577 80.1807L63.1866 79.6217L44.4803 57.8205Z" fill="#DC0032"/>
<path fill-rule="evenodd" clip-rule="evenodd" d="M8.65872 17.6621L7.62988 18.2211L16.3283 28.3764L19.3213 30.0534L8.65872 17.6621ZM29.9839 44.3081L37.2794 52.6932V50.923L33.0704 45.9851L29.9839 44.3081ZM44.4813 59.2151V60.9851L61.3169 80.6436L62.3458 80.0846L44.4813 59.2151Z" fill="#DC0032"/>
<path fill-rule="evenodd" clip-rule="evenodd" d="M7.81693 18.127L6.78809 18.686L13.8964 26.9778L16.8895 28.6549L7.81693 18.127ZM27.6456 42.9097L37.2794 54.0898V52.3196L30.6386 44.5866L27.6456 42.9097ZM44.4812 60.7046V62.4748L60.5687 81.1084L61.5975 80.5494L44.4812 60.7046Z" fill="#DC0032"/>
<path fill-rule="evenodd" clip-rule="evenodd" d="M6.97513 18.5918L5.94629 19.1508L11.4647 25.5794L14.4576 27.2564L6.97513 18.5918ZM25.2138 41.5111L37.2794 55.4863V53.7161L28.2067 43.2812L25.2138 41.5111ZM44.4812 62.1012V63.8714L59.727 81.5733L60.7557 81.0143L44.4812 62.1012Z" fill="#DC0032"/>
<path fill-rule="evenodd" clip-rule="evenodd" d="M6.13431 19.0547L5.10547 19.6137L9.03378 24.179L12.0268 25.9492L6.13431 19.0547ZM22.783 40.1107L37.2803 56.9741V55.2039L25.776 41.8809L22.783 40.1107ZM44.4822 63.4957V65.2659L58.8861 82.0362L59.9149 81.4772L44.4822 63.4957Z" fill="#DC0032"/>
<path fill-rule="evenodd" clip-rule="evenodd" d="M5.29349 19.5273L4.26465 20.0864L6.60294 22.7882L9.68948 24.5584L5.29349 19.5273ZM20.3521 38.8131L37.2813 58.3784V56.6082L23.3451 40.4902L20.3521 38.8131ZM44.4832 64.9932V66.7634L58.0453 82.5088L59.0742 81.9498L44.4832 64.9932Z" fill="#DC0032"/>
<path fill-rule="evenodd" clip-rule="evenodd" d="M4.4505 19.8984L3.32812 20.4575L4.1699 21.4823L7.25644 23.1593L4.4505 19.8984ZM17.919 37.414L37.2801 59.8674V58.0041L21.0056 39.091L17.919 37.414ZM44.4819 66.3892V68.1594L57.2023 83.0663L58.2312 82.4141L44.4819 66.3892Z" fill="#DC0032"/>
<path fill-rule="evenodd" clip-rule="evenodd" d="M3.60881 20.3613L2.9541 20.734L4.82473 21.7589L3.60881 20.3613V20.3613ZM15.4873 36.0135L37.2802 61.262V59.4919L18.5739 37.7837L15.4873 36.0135ZM44.482 67.7838V69.6471L56.4542 83.5291L57.483 82.877L44.482 67.7838Z" fill="#DC0032"/>
<path fill-rule="evenodd" clip-rule="evenodd" d="M13.1484 34.6152L37.2796 62.6587V60.8885L16.1414 36.3854L13.1484 34.6152ZM44.4815 69.2737V71.0439L55.6118 83.9942L56.6406 83.342L44.4815 69.2737Z" fill="#DC0032"/>
<path fill-rule="evenodd" clip-rule="evenodd" d="M10.7168 33.3184L37.2798 64.1569V62.2935L13.7098 34.9954L10.7168 33.3184ZM44.4816 70.6787V72.4489L54.7702 84.4675L55.799 83.8154L44.4816 70.6787Z" fill="#DC0032"/>
<path fill-rule="evenodd" clip-rule="evenodd" d="M8.28516 31.916L37.2799 65.5496V63.7794L11.2782 33.5931L8.28516 31.916ZM44.4818 72.0714V73.9348L53.9286 84.9286L54.9574 84.3696L44.4818 72.0714Z" fill="#DC0032"/>
<path fill-rule="evenodd" clip-rule="evenodd" d="M5.85156 30.5156L37.2782 66.9443V65.1741L8.84457 32.2858L5.85156 30.5156ZM44.48 73.5593V75.3295L53.085 85.3916L54.1139 84.8325L44.48 73.5593Z" fill="#DB0032"/>
<path fill-rule="evenodd" clip-rule="evenodd" d="M3.4209 29.123L37.2793 68.44V66.6697L6.4139 30.8933L3.4209 29.123ZM44.4812 74.9617V76.7318L52.3379 85.8624L53.3667 85.3033L44.4812 74.9617Z" fill="#DA0032"/>
<path fill-rule="evenodd" clip-rule="evenodd" d="M0.988281 27.8164L37.2785 69.8352V68.065L4.07482 29.4934L0.988281 27.8164ZM44.4804 76.357V78.2202L51.4953 86.3259L52.5242 85.7669L44.4804 76.357Z" fill="#D90032"/>
<path fill-rule="evenodd" clip-rule="evenodd" d="M0.895508 27.7207V29.0251L37.2793 71.2302V69.46L1.64376 28.0934L0.895508 27.7207ZM44.4812 77.845V78.9631C44.4812 79.1494 44.3876 79.3357 44.2941 79.4289L50.6543 86.7892L51.6831 86.2302L44.4812 77.845Z" fill="#D80032"/>
<path fill-rule="evenodd" clip-rule="evenodd" d="M0.895508 28.6582V30.5216L37.2793 72.7267V70.9565L0.895508 28.6582ZM44.3876 79.2484C44.2941 79.6211 44.0135 79.9937 43.7329 80.0869L43.6394 80.1801L49.8125 87.2609L50.8413 86.7019L44.3876 79.2484L44.3876 79.2484Z" fill="#D70032"/>
<path fill-rule="evenodd" clip-rule="evenodd" d="M0.895508 30.1465V31.9167L37.2793 74.1218V72.3516L0.895508 30.1465ZM43.8264 79.9913C43.8264 80.0845 43.8264 80.0845 43.7329 80.0845L42.7977 80.6435L48.9707 87.7243L49.9995 87.1653L43.8264 79.9913L43.8264 79.9913Z" fill="#D60032"/>
<path fill-rule="evenodd" clip-rule="evenodd" d="M0.895508 31.5469V33.3171L37.2793 75.5222V73.752L0.895508 31.5469ZM43.0782 80.46L41.9559 81.1122L48.2224 88.2862L49.2513 87.634L43.0782 80.46Z" fill="#D50032"/>
<path fill-rule="evenodd" clip-rule="evenodd" d="M0.895508 33.0332V34.8034L37.2793 77.0084V75.2383L0.895508 33.0332ZM42.2365 80.9215L41.5818 81.2942C41.3947 81.3873 41.2076 81.3873 41.0206 81.3873L47.3806 88.7477L48.4095 88.0955L42.2365 80.9215V80.9215Z" fill="#D40032"/>
<path fill-rule="evenodd" clip-rule="evenodd" d="M0.895508 34.4355V36.2057L37.2793 78.4108V76.6406L0.895508 34.4355ZM39.337 80.9263L46.5389 89.2183L47.5677 88.5661L41.3012 81.3921C41.2076 81.3921 41.0206 81.4853 40.927 81.4853H40.8335C40.5529 81.4853 40.3658 81.3921 40.1788 81.299L39.337 80.9263L39.337 80.9263Z" fill="#D30032"/>
<path fill-rule="evenodd" clip-rule="evenodd" d="M0.895508 35.8281V37.6915L45.6971 89.6792L46.7259 89.027L39.9917 81.2009L37.934 80.0829C37.5599 79.8965 37.2793 79.4307 37.2793 78.9648V78.0331L0.895508 35.8281Z" fill="#D20032"/>
<path fill-rule="evenodd" clip-rule="evenodd" d="M0.895508 37.3242V39.0944L44.8553 90.1504L45.8841 89.5914L0.895508 37.3242Z" fill="#D10032"/>
<path fill-rule="evenodd" clip-rule="evenodd" d="M0.895508 38.7168V40.487L44.0135 90.6113L45.0423 90.0523L0.895508 38.7168Z" fill="#D00032"/>
<path fill-rule="evenodd" clip-rule="evenodd" d="M0.895508 40.1172V41.9806L43.2652 91.08L44.2941 90.521L0.895508 40.1172Z" fill="#CF0032"/>
<path fill-rule="evenodd" clip-rule="evenodd" d="M0.895508 41.6055V43.3755L42.4236 91.5435L43.4523 90.9845L0.895508 41.6055Z" fill="#CE0032"/>
<path fill-rule="evenodd" clip-rule="evenodd" d="M0.895508 43.0059V44.7761L41.4882 91.9191C41.7688 91.8259 42.0494 91.7328 42.33 91.6396L42.6106 91.4533L0.895508 43.0059Z" fill="#CD0032"/>
<path fill-rule="evenodd" clip-rule="evenodd" d="M0.895508 44.3984V46.2618L40.2723 91.9142C40.4594 91.9142 40.6465 91.9142 40.8335 91.9142C41.1141 91.9142 41.3947 91.9142 41.6753 91.821L0.895508 44.3984Z" fill="#CC0032"/>
<path fill-rule="evenodd" clip-rule="evenodd" d="M0.895508 45.8945V47.6647L38.1211 90.8947L39.4305 91.6401C39.7111 91.8264 40.1788 91.9196 40.5529 91.9196L0.895508 45.8945Z" fill="#CB0032"/>
<path fill-rule="evenodd" clip-rule="evenodd" d="M0.895508 47.2871V49.0573L35.6892 89.4922L38.7758 91.2624L0.895508 47.2871Z" fill="#CA0032"/>
<path fill-rule="evenodd" clip-rule="evenodd" d="M0.895508 48.7832V50.5534L33.2574 88.1001L36.344 89.8703L0.895508 48.7832Z" fill="#C90032"/>
<path fill-rule="evenodd" clip-rule="evenodd" d="M0.895508 50.1758V51.946L30.8256 86.6976L33.8186 88.4678L0.895508 50.1758Z" fill="#C80033"/>
<path fill-rule="evenodd" clip-rule="evenodd" d="M0.895508 51.5781V53.3483L28.3937 85.3049L31.3868 87.0751L0.895508 51.5781Z" fill="#C70033"/>
<path fill-rule="evenodd" clip-rule="evenodd" d="M0.895508 53.0645V54.8347L25.8685 83.8098L28.9549 85.58L0.895508 53.0645Z" fill="#C60033"/>
<path fill-rule="evenodd" clip-rule="evenodd" d="M0.895508 54.4668V56.237L23.4366 82.4171L26.5231 84.1873L0.895508 54.4668Z" fill="#C50033"/>
<path fill-rule="evenodd" clip-rule="evenodd" d="M0.895508 55.8594V57.6296L21.0048 81.0147L24.0914 82.7849L0.895508 55.8594Z" fill="#C40033"/>
<path fill-rule="evenodd" clip-rule="evenodd" d="M0.895508 57.3555V59.1257L18.573 79.6225L21.6595 81.3927L0.895508 57.3555Z" fill="#C30033"/>
<path fill-rule="evenodd" clip-rule="evenodd" d="M0.895508 58.748V60.5181L16.1411 78.22L19.2277 79.9902L0.895508 58.748Z" fill="#C20033"/>
<path fill-rule="evenodd" clip-rule="evenodd" d="M0.895508 60.1484V62.0118L13.7093 76.8255L16.7023 78.5957L0.895508 60.1484Z" fill="#C10033"/>
<path fill-rule="evenodd" clip-rule="evenodd" d="M0.895508 61.6367V63.4069L11.184 75.4257L14.2705 77.1957L0.895508 61.6367Z" fill="#C00033"/>
<path fill-rule="evenodd" clip-rule="evenodd" d="M0.895508 63.0371V64.8073L8.75215 74.031L11.8387 75.708L0.895508 63.0371Z" fill="#BF0033"/>
<path fill-rule="evenodd" clip-rule="evenodd" d="M0.895508 64.4297V66.2931L6.32034 72.5354L9.40688 74.3056L0.895508 64.4297Z" fill="#BE0033"/>
<path fill-rule="evenodd" clip-rule="evenodd" d="M0.895508 65.9258V67.696L3.88851 71.1432L6.97505 72.9134L0.895508 65.9258Z" fill="#BD0033"/>
<path fill-rule="evenodd" clip-rule="evenodd" d="M0.895508 67.3184V67.7842C0.895508 68.7159 1.5504 69.8339 2.29885 70.2998L4.54419 71.5109L0.895508 67.3184Z" fill="#BC0033"/>
<path fill-rule="evenodd" clip-rule="evenodd" d="M1.45703 69.459C1.64414 69.6453 1.7377 69.8317 1.92481 69.9248L1.45703 69.459Z" fill="#BB0033"/>
</g>
<defs>
<clipPath id="clip0">
<rect width="220.942" height="92.435" fill="white" transform="translate(0.895508 0.984375)"/>
</clipPath>
</defs>
</svg>
