<svg width="46" height="50" viewBox="0 0 46 50" fill="none" xmlns="http://www.w3.org/2000/svg">
<path d="M18.5254 0H21.4551V5.95703H18.5254V0Z" fill="#DB5461"/>
<path d="M28.7129 16.2109V15.7275C28.7129 14.9189 29.3691 14.2627 30.1777 14.2627H33.2402V1.46484C33.2402 0.65625 32.584 0 31.7754 0H24.3848V7.42188C24.3848 8.23047 23.7285 8.88672 22.9199 8.88672H17.0605C16.251 8.88672 15.5957 8.23047 15.5957 7.42188V0H8.20508C7.39648 0 6.74023 0.65625 6.74023 1.46484V20.6055H20.9893C21.4502 18.1084 23.6436 16.2109 26.2715 16.2109H28.7129Z" fill="#DB5461"/>
<path d="M12.4512 23.5352H15.3906V29.4922H12.4512V23.5352Z" fill="#DB5461"/>
<path d="M18.3203 30.957C18.3203 31.7656 17.6641 32.4219 16.8555 32.4219H10.9863C10.1768 32.4219 9.52148 31.7656 9.52148 30.957V23.5352H2.15039C1.3418 23.5352 0.685547 24.1914 0.685547 25V48.5117C0.685547 49.3203 1.3418 49.9766 2.15039 49.9766H20.9004V23.5352H18.3203V30.957Z" fill="#DB5461"/>
<path d="M31.6426 17.1924H37.502V20.8984H31.6426V17.1924Z" fill="#DB5461"/>
<path d="M42.873 19.1406H40.4316V22.3633C40.4316 23.1719 39.7754 23.8281 38.9668 23.8281H30.1777C29.3691 23.8281 28.7129 23.1719 28.7129 22.3633V19.1406H26.2715C24.9229 19.1406 23.8301 20.2334 23.8301 21.582V47.5586C23.8301 48.9072 24.9229 50 26.2715 50H42.873C44.2217 50 45.3145 48.9072 45.3145 47.5586V21.582C45.3145 20.2334 44.2217 19.1406 42.873 19.1406ZM41.0109 32.3834L33.6867 39.7076C33.1146 40.2797 32.1872 40.2797 31.6151 39.7076L28.7196 36.8121C28.1476 36.2401 28.1476 35.3126 28.7196 34.7405C29.2916 34.1686 30.2191 34.1686 30.7912 34.7405L32.651 36.6003L38.9395 30.3118C39.5114 29.7398 40.439 29.7398 41.011 30.3118C41.583 30.8839 41.583 31.8114 41.0109 32.3834Z" fill="#DB5461"/>
</svg>
