<svg width="23" height="22" viewBox="0 0 23 22" fill="none" xmlns="http://www.w3.org/2000/svg">
<path d="M3 3.5V0.5H5V3.5H8V5.5H5V8.5H3V5.5H0V3.5H3ZM6 9.5V6.5H9V3.5H16L17.83 5.5H21C22.1 5.5 23 6.4 23 7.5V19.5C23 20.6 22.1 21.5 21 21.5H5C3.9 21.5 3 20.6 3 19.5V9.5H6ZM13 18.5C15.76 18.5 18 16.26 18 13.5C18 10.74 15.76 8.5 13 8.5C10.24 8.5 8 10.74 8 13.5C8 16.26 10.24 18.5 13 18.5ZM9.8 13.5C9.8 15.27 11.23 16.7 13 16.7C14.77 16.7 16.2 15.27 16.2 13.5C16.2 11.73 14.77 10.3 13 10.3C11.23 10.3 9.8 11.73 9.8 13.5Z" fill="white" fill-opacity="0.5"/>
</svg>
