<svg width="10" height="13" viewBox="0 0 10 13" fill="none" xmlns="http://www.w3.org/2000/svg">
<path d="M5 0C2.24299 0 0 2.29438 0 5.11456C0 6.03815 0.232986 7.01862 0.692458 8.02871C1.05526 8.82624 1.55979 9.64488 2.19204 10.4619C3.26387 11.847 4.3206 12.7394 4.36508 12.7766C4.53673 12.9206 4.76221 13 5 13C5.23779 13 5.46327 12.9206 5.63495 12.7766C5.6794 12.7393 6.73613 11.8469 7.80796 10.4619C8.44021 9.64488 8.94474 8.82624 9.30754 8.02868C9.76702 7.01859 10 6.03815 10 5.11453C10 2.29438 7.75701 0 5 0Z" fill="white"/>
</svg>
