<svg width="100" height="100" viewBox="0 0 100 100" fill="none" xmlns="http://www.w3.org/2000/svg">
<path d="M96.875 34.375C98.6008 34.375 100 32.9758 100 31.25V15.625C100 14.2092 99.048 12.9703 97.6803 12.6055L50.8053 0.105469C50.2777 -0.0351562 49.7225 -0.0351562 49.1949 0.105469L2.31992 12.6055C0.951953 12.9703 0 14.2092 0 15.625V31.25C0 32.9758 1.39922 34.375 3.125 34.375H9.375V93.75H3.125C1.39922 93.75 0 95.1492 0 96.875C0 98.6008 1.39922 100 3.125 100H96.875C98.6008 100 100 98.6008 100 96.875C100 95.1492 98.6008 93.75 96.875 93.75H90.625V34.375H96.875ZM6.25 18.0258L50 6.35918L93.75 18.0258V28.125H6.25V18.0258ZM39.0625 34.375V93.75H29.6875V34.375H39.0625ZM45.3125 34.375H54.6875V93.75H45.3125V34.375ZM60.9375 34.375H70.3125V93.75H60.9375V34.375ZM15.625 34.375H23.4375V93.75H15.625V34.375ZM84.375 93.75H76.5625V34.375H84.375V93.75Z" fill="#58629D"/>
<path fill-rule="evenodd" clip-rule="evenodd" d="M50 14.5C48.067 14.5 46.5 16.067 46.5 18C46.5 19.933 48.067 21.5 50 21.5C51.933 21.5 53.5 19.933 53.5 18C53.5 16.067 51.933 14.5 50 14.5ZM41.5 18C41.5 13.3056 45.3056 9.5 50 9.5C54.6944 9.5 58.5 13.3056 58.5 18C58.5 22.6944 54.6944 26.5 50 26.5C45.3056 26.5 41.5 22.6944 41.5 18Z" fill="#DB5461"/>
</svg>
