<svg width="12" height="10" viewBox="0 0 12 10" fill="none" xmlns="http://www.w3.org/2000/svg">
<path d="M1.05469 0.392578H10.9453C11.1077 0.392578 11.2597 0.435153 11.3972 0.505328L6.74569 5.4419C6.33441 5.8806 5.66559 5.8806 5.25431 5.4419L0.602836 0.505328C0.740344 0.435153 0.892336 0.392578 1.05469 0.392578Z" fill="white"/>
<path d="M8.25495 4.89258L11.8943 1.0356C11.9601 1.18228 12 1.3444 12 1.51758V8.26758C12 8.44073 11.9601 8.60288 11.8943 8.74955L8.25495 4.89258Z" fill="white"/>
<path d="M0.105703 1.0356C0.0399141 1.18228 0 1.3444 0 1.51758V8.26758C0 8.44075 0.0399141 8.6029 0.105703 8.74955L3.74505 4.89258L0.105703 1.0356Z" fill="white"/>
<path d="M7.24282 5.97218L7.75781 5.42285L11.3972 9.27983C11.2597 9.35 11.1077 9.39258 10.9453 9.39258H1.05469C0.892336 9.39258 0.740344 9.35 0.602836 9.27983L4.24219 5.42285L4.75716 5.97218C5.44245 6.70315 6.55753 6.70315 7.24282 5.97218Z" fill="white"/>
</svg>
