<svg width="42" height="64" viewBox="0 0 42 64" fill="none" xmlns="http://www.w3.org/2000/svg">
<path d="M33.8024 2.94583H29.0401V2.53912C29.0401 1.13667 27.9034 0 26.5009 0H15.4988C14.0967 0 12.9597 1.13667 12.9597 2.53912V2.9462H8.19703C4.12075 2.9462 0.804443 6.26287 0.804443 10.3388V56.6074C0.804443 60.6837 4.12111 64 8.19703 64H33.802C37.8783 64 41.1946 60.6833 41.1946 56.6074V10.3388C41.195 6.2625 37.8787 2.94583 33.8024 2.94583ZM35.7038 56.607C35.7038 57.6555 34.8508 58.5085 33.8024 58.5085H8.19739C7.14895 58.5085 6.29598 57.6555 6.29598 56.607V10.3388C6.29598 9.29033 7.14895 8.43737 8.19739 8.43737H33.8024C34.8508 8.43737 35.7038 9.29033 35.7038 10.3388V56.607Z" fill="#293333"/>
<path d="M30.518 14.5714H11.4819V23.2065H30.518V14.5714Z" fill="#FF0000"/>
<path d="M30.518 29.1553H11.4819V37.7907H30.518V29.1553Z" fill="#FF0000"/>
<path d="M30.518 43.7394H11.4819V52.3744H30.518V43.7394Z" fill="#FF0000"/>
</svg>
