<svg width="42" height="64" viewBox="0 0 42 64" fill="none" xmlns="http://www.w3.org/2000/svg">
<g clip-path="url(#clip0)">
<path fill-rule="evenodd" clip-rule="evenodd" d="M8 32.4991H2.752V43.2511C2.752 43.6735 3.3792 43.7887 4.0576 44.0703L13.376 47.9999C14.3616 48.4351 14.7584 48.3711 14.7584 48.9983C14.7584 52.8639 13.1968 55.5263 10.176 57.0367C9.216 57.5231 8.1408 57.8687 6.7584 57.8687H0V63.9999H41.7536V57.8687H35.008C30.528 57.8687 27.008 54.1823 27.008 49.2415C27.008 48.3455 27.1488 48.5503 28.3008 48.0383L38.4128 43.7759C38.7456 43.6479 39.0144 43.6479 39.0144 43.2511V32.4991H33.7664V21.8751H8V32.4991Z" fill="#293333"/>
<path fill-rule="evenodd" clip-rule="evenodd" d="M0.256104 13.8752V28.5056C0.256104 28.7872 0.345704 28.8768 0.627304 28.8768H4.3777V18.1248H32.3713C37.1585 18.1248 41.4977 13.696 41.4977 8.8704V0H12.8769C10.9825 0 8.8961 0.6912 7.5777 1.3312C6.8993 1.664 6.1697 2.1504 5.5809 2.5856C3.6993 3.9936 2.0353 5.9776 1.2289 8.2304C0.627304 9.9328 0.256104 11.5328 0.256104 13.8752Z" fill="#FF0000"/>
<path fill-rule="evenodd" clip-rule="evenodd" d="M37.376 20.6208V28.8768C41.8944 28.8768 41.5232 29.1968 41.5104 27.8784L41.4976 17.8688C41.0496 17.984 40.896 18.2912 40.5888 18.5856C40.2816 18.8928 39.9488 19.1232 39.616 19.3664C39.1424 19.712 37.9904 20.48 37.376 20.6208Z" fill="#E2000F"/>
</g>
<defs>
<clipPath id="clip0">
<rect width="41.728" height="64" fill="white"/>
</clipPath>
</defs>
</svg>
