<svg width="61" height="64" viewBox="0 0 61 64" fill="none" xmlns="http://www.w3.org/2000/svg">
<g clip-path="url(#clip0)">
<path d="M30.9761 49.536C37.8332 49.536 43.3921 43.9771 43.3921 37.12C43.3921 30.2628 37.8332 24.704 30.9761 24.704C24.1189 24.704 18.5601 30.2628 18.5601 37.12C18.5601 43.9771 24.1189 49.536 30.9761 49.536Z" fill="#FF0000"/>
<path fill-rule="evenodd" clip-rule="evenodd" d="M49.856 30.0544L43.0848 19.8912L39.4496 5.4016V0H35.6864V3.7632H24.4736V0H20.7104V5.4016L17.088 19.8912L10.3168 30.0544H0V33.8176H9.4592V64H50.7264V33.8176H60.2496V30.0544H49.856ZM35.0336 44.1472C34.5088 44.0832 34.1248 43.5584 33.7792 43.2C32.5632 42.0096 30.656 40.0384 30.2464 39.6416C29.9264 39.3216 28.9664 38.272 28.6848 38.1184C28.3776 38.3488 28.032 38.7584 27.7376 39.0528C26.9824 39.7952 25.152 41.408 25.0624 42.1888C24.8448 44.1088 27.8272 44.224 27.8016 42.3168C27.7888 41.6512 27.4304 41.3312 27.008 41.1136L28.6976 39.3856C29.2864 39.7568 29.9008 40.6016 30.0928 41.6512C30.7072 44.8128 27.1104 47.424 24.2304 45.3888C22.8736 44.4288 21.9648 42.0224 23.3472 40.192C24.1024 39.2064 26.6496 36.9024 26.9952 36.416L25.1776 34.56C24.5504 33.9328 23.936 33.3952 23.3856 32.6784C21.9904 30.8864 22.8224 28.48 24.192 27.4688C26.9696 25.4208 30.6816 27.904 30.1184 31.1168C29.9264 32.1792 29.2992 33.0624 28.7104 33.4336L26.9952 31.7184C28.0448 31.2064 28.0704 29.8112 27.0848 29.2736C26.0096 28.6848 24.768 29.7088 25.1136 30.8736C25.3184 31.5392 28.3136 34.3552 28.992 35.0208C32.0384 38.0288 35.0464 41.088 38.0672 44.1216L35.0336 44.1472ZM29.3632 34.112L32.8576 30.5536C34.5344 28.8512 34.4192 28.608 35.6992 28.6208L38.0928 28.6464L30.976 35.7248L29.3632 34.112Z" fill="#293333"/>
</g>
<defs>
<clipPath id="clip0">
<rect width="60.288" height="64" fill="white"/>
</clipPath>
</defs>
</svg>
