<svg width="64" height="64" viewBox="0 0 64 64" fill="none" xmlns="http://www.w3.org/2000/svg">
<circle cx="55" cy="31" r="6" fill="#FF0000"/>
<circle cx="54" cy="48" r="6" fill="#FF0000"/>
<path d="M59.3567 15.5694H39.5713L46.5968 4.04184C47.206 3.04243 46.8896 1.73841 45.8902 1.12935C44.8909 0.520014 43.5867 0.836623 42.9777 1.83604L34.6078 15.5694H29.3923L21.0225 1.83604C20.4134 0.836905 19.1094 0.520438 18.11 1.12935C17.1106 1.73855 16.7941 3.04243 17.4033 4.04184L24.4289 15.5694H4.64317C2.08289 15.5694 0 17.6523 0 20.2125V58.5377C0 61.0978 2.08289 63.1807 4.64317 63.1807H59.3568C61.9171 63.1807 64 61.0978 64 58.5377V20.2125C63.9999 17.6523 61.917 15.5694 59.3567 15.5694ZM44.8814 52.9675C44.8814 54.3614 43.7515 55.4915 42.3575 55.4915H10.0574C8.66358 55.4914 7.53362 54.3614 7.53362 52.9675V25.7827C7.53362 24.3889 8.66358 23.2588 10.0576 23.2588H42.3575C43.7513 23.2588 44.8814 24.3889 44.8814 25.7827V52.9675ZM54.2221 52.161C51.8072 52.161 49.8425 50.1962 49.8425 47.7813C49.8425 45.3663 51.8072 43.4016 54.2221 43.4016C56.637 43.4016 58.6018 45.3663 58.6018 47.7813C58.6018 50.1963 56.637 52.161 54.2221 52.161ZM54.2221 35.3487C51.8072 35.3487 49.8425 33.384 49.8425 30.969C49.8425 28.5539 51.8072 26.5893 54.2221 26.5893C56.637 26.5893 58.6018 28.5539 58.6018 30.969C58.6018 33.384 56.637 35.3487 54.2221 35.3487Z" fill="#293333"/>
</svg>
