<svg width="20" height="20" viewBox="0 0 20 20" fill="none" xmlns="http://www.w3.org/2000/svg">
<path opacity="0.5" fill-rule="evenodd" clip-rule="evenodd" d="M17 11C18.6569 11 20 12.3431 20 14V17C20 18.6569 18.6569 20 17 20H3C1.34315 20 0 18.6569 0 17V14C0 12.3431 1.34315 11 3 11H17ZM17 13H3C2.44772 13 2 13.4477 2 14V17C2 17.5523 2.44772 18 3 18H17C17.5523 18 18 17.5523 18 17V14C18 13.4477 17.5523 13 17 13ZM17 0C18.6569 0 20 1.34315 20 3V6C20 7.65685 18.6569 9 17 9H3C1.34315 9 0 7.65685 0 6V3C0 1.34315 1.34315 0 3 0H17ZM17 2H3C2.44772 2 2 2.44772 2 3V6C2 6.55228 2.44772 7 3 7H17C17.5523 7 18 6.55228 18 6V3C18 2.44772 17.5523 2 17 2Z" fill="#858585"/>
</svg>
