<svg width="46" height="50" viewBox="0 0 46 50" fill="none" xmlns="http://www.w3.org/2000/svg">
<path d="M0.936523 48.5348C0.936426 49.3439 1.59227 49.9999 2.40135 50H2.40154C3.21063 50 3.86647 49.3442 3.86657 48.5352L3.86705 44.7574H42.1334V48.4937C42.1334 49.2825 42.7396 49.9613 43.5276 49.9984C44.3689 50.0381 45.0634 49.3677 45.0634 48.5351L45.0646 1.46502C45.0646 0.655939 44.4087 0 43.5996 0H2.40272C1.59363 0 0.937696 0.655939 0.937696 1.46502L0.936523 48.5348ZM42.1346 38.6731H38.0235V27.7299C38.0235 27.2967 37.6723 26.9454 37.2391 26.9454H32.7269V29.9969C32.7269 30.7858 32.1207 31.4646 31.3327 31.5017C30.4914 31.5413 29.7969 30.8709 29.7969 30.0383V26.9454H25.2535C24.8376 26.9454 24.5003 27.2827 24.5003 27.6987V38.673H21.5405V27.6266C21.5405 27.2505 21.2356 26.9454 20.8593 26.9454H16.2438V29.9855C16.2438 30.7743 15.6376 31.4531 14.8496 31.4902C14.0083 31.5299 13.3138 30.8595 13.3138 30.0269V26.9455H8.83182C8.38186 26.9455 8.01717 27.3102 8.01717 27.7602V38.6732H3.86774V22.5184H42.1347V38.6731H42.1346ZM42.1346 19.5883H29.7628V8.74227C29.7628 8.2553 29.368 7.86062 28.8811 7.86062H24.4661V11.1936C24.4661 11.9825 23.8599 12.6613 23.0719 12.6984C22.2306 12.7381 21.5361 12.0677 21.5361 11.2351V7.86052H16.917C16.5428 7.86052 16.2395 8.16388 16.2395 8.53804V19.5882H3.86774V9.37838L13.6035 2.93004H32.5487L42.1346 9.25171V19.5883Z" fill="#DB5461"/>
</svg>
