<svg width="50" height="49" viewBox="0 0 50 49" fill="none" xmlns="http://www.w3.org/2000/svg">
<path d="M48.8844 19.1828L44.2929 18.0558C44.076 17.4609 43.8261 16.8654 43.5448 16.274L45.9362 12.2882C46.282 11.7118 46.1912 10.974 45.7159 10.4987L39.5011 4.28389C39.0259 3.80859 38.288 3.71777 37.7116 4.06357L33.7259 6.45508C33.1344 6.17383 32.539 5.92383 31.944 5.70693L30.8171 1.11562C30.6563 0.460644 30.069 0 29.3945 0H20.6055C19.931 0 19.3437 0.460644 19.1829 1.11562L18.056 5.70693C17.461 5.92383 16.8656 6.17383 16.2741 6.45508L12.2884 4.06357C11.7121 3.71777 10.9742 3.80859 10.4989 4.28389L4.28408 10.4987C3.80879 10.974 3.71797 11.7118 4.06377 12.2882L6.45518 16.274C6.17393 16.8654 5.92402 17.4609 5.70713 18.0558L1.11563 19.1828C0.460645 19.3437 0 19.931 0 20.6055V29.3945C0 30.069 0.460645 30.6563 1.11563 30.8172L5.70713 31.9442C5.92402 32.5391 6.17393 33.1346 6.45518 33.726L4.06377 37.7118C3.71797 38.2882 3.80879 39.026 4.28408 39.5013L10.4989 45.7161C10.9742 46.1914 11.712 46.2822 12.2884 45.9364L16.2741 43.5449C16.8656 43.8262 17.461 44.0762 18.056 44.2931L19.1406 48.7122V36.8075C14.8034 34.6465 11.8164 30.1658 11.8164 25C11.8164 22.3273 12.6154 19.7516 14.127 17.5513C15.6015 15.405 17.6512 13.7547 20.0544 12.779C20.506 12.5956 21.0193 12.6489 21.4235 12.9212C21.8279 13.1934 22.0703 13.6489 22.0703 14.1363V24.2161L25 26.1692L27.9297 24.2161V14.1362C27.9297 13.6488 28.1721 13.1934 28.5765 12.9211C28.9808 12.6489 29.494 12.5956 29.9456 12.7789C32.3488 13.7546 34.3986 15.4049 35.873 17.5512C37.3846 19.7516 38.1836 22.3273 38.1836 25C38.1836 30.1658 35.1966 34.6465 30.8594 36.8075V48.7122L31.944 44.293C32.539 44.0761 33.1344 43.8261 33.7259 43.5448L37.7116 45.9363C38.2879 46.2822 39.0258 46.1914 39.5011 45.716L45.7159 39.5012C46.1912 39.0259 46.282 38.2881 45.9362 37.7117L43.5448 33.7259C43.8261 33.1345 44.076 32.539 44.2929 31.9441L48.8844 30.8171C49.5394 30.6563 50 30.069 50 29.3945V20.6055C50 19.931 49.5394 19.3437 48.8844 19.1828Z" fill="#DB5461"/>
</svg>
